<mxfile host="Electron" modified="2025-08-17T00:17:49.662Z" agent="Mozilla/5.0 (Windows NT 10.0; Win64; x64) AppleWebKit/537.36 (KHTML, like Gecko) draw.io/24.1.0 Chrome/120.0.6099.109 Electron/28.1.0 Safari/537.36" etag="FARG_ecZBcGtYyR5VU_X" version="24.1.0" type="device">
  <diagram name="Sheet 1" id="rlgoqLv1cVGT0BMiNDzZ">
    <mxGraphModel dx="1687" dy="984" grid="1" gridSize="1.9685" guides="1" tooltips="1" connect="1" arrows="1" fold="1" page="1" pageScale="1" pageWidth="827" pageHeight="1169" math="0" shadow="0">
      <root>
        <mxCell id="6ik4fCtfQ_uQef5bXLx3-0" />
        <mxCell id="6ik4fCtfQ_uQef5bXLx3-1" parent="6ik4fCtfQ_uQef5bXLx3-0" />
        <mxCell id="VUwI5qCwLW5f4r5SAyZE-0" value="" style="shape=image;verticalLabelPosition=bottom;verticalAlign=top;imageAspect=0;aspect=fixed;image=data:image/svg+xml,PHN2ZyB4bWxucz0iaHR0cDovL3d3dy53My5vcmcvMjAwMC9zdmciIHZpZXdCb3g9IjAgMCA3OTMuMzMzMzEgMTEyMi42NjY3IiBoZWlnaHQ9IjExMjIuNjY2NyIgd2lkdGg9Ijc5My4zMzMzMSIgaWQ9InN2ZzIiIHZlcnNpb249IjEuMSI+JiN4YTsgIDxkZWZzIGlkPSJkZWZzNiI+JiN4YTsgICAgPGNsaXBQYXRoIGlkPSJjbGlwUGF0aDE2IiBjbGlwUGF0aFVuaXRzPSJ1c2VyU3BhY2VPblVzZSI+JiN4YTsgICAgICA8cGF0aCBpZD0icGF0aDE0IiBkPSJtIDE0NjgsODU4MyBoIDY5NjYgdiAzNDk0IEggMTQ2OCBWIDg1ODMiLz4mI3hhOyAgICA8L2NsaXBQYXRoPiYjeGE7ICAgIDxjbGlwUGF0aCBpZD0iY2xpcFBhdGgxMTgiIGNsaXBQYXRoVW5pdHM9InVzZXJTcGFjZU9uVXNlIj4mI3hhOyAgICAgIDxwYXRoIGlkPSJwYXRoMTE2IiBkPSJNIDMxNjksNDM2NSBIIDY2NjMgViA3ODU5IEggMzE2OSBWIDQzNjUiLz4mI3hhOyAgICA8L2NsaXBQYXRoPiYjeGE7ICAgIDxjbGlwUGF0aCBpZD0iY2xpcFBhdGgyMTYiIGNsaXBQYXRoVW5pdHM9InVzZXJTcGFjZU9uVXNlIj4mI3hhOyAgICAgIDxwYXRoIGlkPSJwYXRoMjE0IiBkPSJNIDAsMCBIIDk5MjEgViAxNDAzMSBIIDAgViAwIi8+JiN4YTsgICAgPC9jbGlwUGF0aD4mI3hhOyAgICA8Y2xpcFBhdGggaWQ9ImNsaXBQYXRoMjM4IiBjbGlwUGF0aFVuaXRzPSJ1c2VyU3BhY2VPblVzZSI+JiN4YTsgICAgICA8cGF0aCBpZD0icGF0aDIzNiIgZD0iTSAwLDAgSCA5OTIxIFYgMTQwMzEgSCAwIFYgMCIvPiYjeGE7ICAgIDwvY2xpcFBhdGg+JiN4YTsgICAgPGNsaXBQYXRoIGlkPSJjbGlwUGF0aDI1MCIgY2xpcFBhdGhVbml0cz0idXNlclNwYWNlT25Vc2UiPiYjeGE7ICAgICAgPHBhdGggaWQ9InBhdGgyNDgiIGQ9Ik0gMCwwIEggOTkyMSBWIDE0MDMxIEggMCBWIDAiLz4mI3hhOyAgICA8L2NsaXBQYXRoPiYjeGE7ICA8L2RlZnM+JiN4YTsgIDxnIHRyYW5zZm9ybT0ibWF0cml4KDAuMDgsMCwwLC0wLjA4LDAsMTEyMi42NjY3KSIgaWQ9Imc4Ij4mI3hhOyAgICA8ZyBpZD0iZzEwIj4mI3hhOyAgICAgIDxnIGNsaXAtcGF0aD0idXJsKCNjbGlwUGF0aDE2KSIgaWQ9ImcxMiI+JiN4YTsgICAgICAgIDxwYXRoIGlkPSJwYXRoMTgiIHN0eWxlPSJmaWxsOm5vbmU7c3Ryb2tlOiMwMDAwMDA7c3Ryb2tlLXdpZHRoOjEyO3N0cm9rZS1saW5lY2FwOnJvdW5kO3N0cm9rZS1saW5lam9pbjpyb3VuZDtzdHJva2UtbWl0ZXJsaW1pdDoxMDtzdHJva2UtZGFzaGFycmF5Om5vbmU7c3Ryb2tlLW9wYWNpdHk6MSIgZD0ibSAzMjUwLDg3NjMgdiAyIDYgMTEgMTQgMTcgMjIgMjYgMjkgMzQgMzYgNDEgNDMgNDcgNTAgNTQgNTYgNTkgNjEgNjQgNjYgNjkgNzAgNzIgNzQgNzUgNzYgNzggNzggNzkgNzkgNzkgNzkgNzkgNzkgNzggNzggNzYgNzUgNzQgNzIgNzAgNjkgNjYgNjQgNjEgNTkgNTYgNTQgNTAgNDcgNDMgNDEgMzYgMzQgMjkgMjYgMjIgMTcgMTQgMTEgNiAyIi8+JiN4YTsgICAgICAgIDxwYXRoIGlkPSJwYXRoMjAiIHN0eWxlPSJmaWxsOm5vbmU7c3Ryb2tlOiMwMDAwMDA7c3Ryb2tlLXdpZHRoOjEyO3N0cm9rZS1saW5lY2FwOnJvdW5kO3N0cm9rZS1saW5lam9pbjpyb3VuZDtzdHJva2UtbWl0ZXJsaW1pdDoxMDtzdHJva2UtZGFzaGFycmF5Om5vbmU7c3Ryb2tlLW9wYWNpdHk6MSIgZD0ibSAyNTQxLDExNjI3IHYgLTIgLTYgLTkgLTE0IC0xNyAtMjAgLTI0IC0yOCAtMzEgLTM1IC0zOCAtNDEgLTQ0IC00NyAtNDkgLTUyIC01NSAtNTcgLTU5IC02MiAtNjMgLTY0IC02NiAtNjcgLTY4IC02OSAtNzAgLTcwIC03MCAtNzAgLTcwIC03MCAtNjkgLTY4IC02NyAtNjYgLTY0IC02MyAtNjIgLTU5IC01NyAtNTUgLTUyIC00OSAtNDcgLTQ0IC00MSAtMzggLTM1IC0zMSAtMjggLTI0IC0yMCAtMTcgLTE0IC05IC02IC0yIi8+JiN4YTsgICAgICAgIDxwYXRoIGlkPSJwYXRoMjIiIHN0eWxlPSJmaWxsOm5vbmU7c3Ryb2tlOiMwMDAwMDA7c3Ryb2tlLXdpZHRoOjEyO3N0cm9rZS1saW5lY2FwOnJvdW5kO3N0cm9rZS1saW5lam9pbjpyb3VuZDtzdHJva2UtbWl0ZXJsaW1pdDoxMDtzdHJva2UtZGFzaGFycmF5Om5vbmU7c3Ryb2tlLW9wYWNpdHk6MSIgZD0ibSAzMTA4LDExODk3IHYgLTIgLTYgLTExIC0xNCAtMTcgLTIyIC0yNiAtMjkgLTM0IC0zNiAtNDEgLTQzIC00NyAtNTAgLTU0IC01NiAtNTkgLTYxIC02NCAtNjYgLTY5IC03MCAtNzIgLTc0IC03NSAtNzYgLTc4IC03OCAtNzkgLTc5IC03OSAtNzkgLTc5IC03OSAtNzggLTc4IC03NiAtNzUgLTc0IC03MiAtNzAgLTY5IC02NiAtNjQgLTYxIC01OSAtNTYgLTU0IC01MCAtNDcgLTQzIC00MSAtMzYgLTM0IC0yOSAtMjYgLTIyIC0xNyAtMTQgLTExIC02IC0yIi8+JiN4YTsgICAgICAgIDxnIHRyYW5zZm9ybT0ibWF0cml4KDAuOTkyMjgsLTAuMTI0MDMsMC4xMjQwMywwLjk5MjI4LDI1OTguNSw5MDMzLjUpIiBpZD0iZzI0Ij4mI3hhOyAgICAgICAgICA8cGF0aCBpZD0icGF0aDI2IiBzdHlsZT0iZmlsbDpub25lO3N0cm9rZTojMDAwMDAwO3N0cm9rZS13aWR0aDoxMjtzdHJva2UtbGluZWNhcDpyb3VuZDtzdHJva2UtbGluZWpvaW46cm91bmQ7c3Ryb2tlLW1pdGVybGltaXQ6MTA7c3Ryb2tlLWRhc2hhcnJheTpub25lO3N0cm9rZS1vcGFjaXR5OjEiIGQ9Ik0gLTU2LjA2Mzc1LC03LjAwNzU5IEMgLTUyLjUyOTY0LC0zNS4yODE5OCAtMjguNDk0NDEsLTU2LjUgMCwtNTYuNSIvPiYjeGE7ICAgICAgICA8L2c+JiN4YTsgICAgICAgIDxnIHRyYW5zZm9ybT0icm90YXRlKDE4MCwxMjk5LjI1LDU4MTMuNzUpIiBpZD0iZzI4Ij4mI3hhOyAgICAgICAgICA8cGF0aCBpZD0icGF0aDMwIiBzdHlsZT0iZmlsbDpub25lO3N0cm9rZTojMDAwMDAwO3N0cm9rZS13aWR0aDoxMjtzdHJva2UtbGluZWNhcDpyb3VuZDtzdHJva2UtbGluZWpvaW46cm91bmQ7c3Ryb2tlLW1pdGVybGltaXQ6MTA7c3Ryb2tlLWRhc2hhcnJheTpub25lO3N0cm9rZS1vcGFjaXR5OjEiIGQ9Ik0gNy4wMDc1OSwtNTYuMDYzNzUgQyAzNS4yODE5OCwtNTIuNTI5NjQgNTYuNSwtMjguNDk0NDEgNTYuNSwwIi8+JiN4YTsgICAgICAgIDwvZz4mI3hhOyAgICAgICAgPHBhdGggaWQ9InBhdGgzMiIgc3R5bGU9ImZpbGw6bm9uZTtzdHJva2U6IzAwMDAwMDtzdHJva2Utd2lkdGg6MTI7c3Ryb2tlLWxpbmVjYXA6cm91bmQ7c3Ryb2tlLWxpbmVqb2luOnJvdW5kO3N0cm9rZS1taXRlcmxpbWl0OjEwO3N0cm9rZS1kYXNoYXJyYXk6bm9uZTtzdHJva2Utb3BhY2l0eToxIiBkPSJtIDI1OTEsMTE2ODMgNTE3LDY1Ii8+JiN4YTsgICAgICAgIDxwYXRoIGlkPSJwYXRoMzQiIHN0eWxlPSJmaWxsOm5vbmU7c3Ryb2tlOiMwMDAwMDA7c3Ryb2tlLXdpZHRoOjEyO3N0cm9rZS1saW5lY2FwOnJvdW5kO3N0cm9rZS1saW5lam9pbjpyb3VuZDtzdHJva2UtbWl0ZXJsaW1pdDoxMDtzdHJva2UtZGFzaGFycmF5Om5vbmU7c3Ryb2tlLW9wYWNpdHk6MSIgZD0ibSAyNTkxLDg5NzcgNTE3LC02NSIvPiYjeGE7ICAgICAgICA8cGF0aCBpZD0icGF0aDM2IiBzdHlsZT0iZmlsbDpub25lO3N0cm9rZTojMDAwMDAwO3N0cm9rZS13aWR0aDoxMjtzdHJva2UtbGluZWNhcDpyb3VuZDtzdHJva2UtbGluZWpvaW46cm91bmQ7c3Ryb2tlLW1pdGVybGltaXQ6MTA7c3Ryb2tlLWRhc2hhcnJheTpub25lO3N0cm9rZS1vcGFjaXR5OjEiIGQ9Im0gMzEwOSw4NzYzLjUgYyAwLC0xNS43NDAyIDEyLjc1OTgsLTI4LjUgMjguNSwtMjguNSIvPiYjeGE7ICAgICAgICA8ZyB0cmFuc2Zvcm09InJvdGF0ZSgxODAsMTU2OC43NSw1OTQ4Ljc1KSIgaWQ9ImczOCI+JiN4YTsgICAgICAgICAgPHBhdGggaWQ9InBhdGg0MCIgc3R5bGU9ImZpbGw6bm9uZTtzdHJva2U6IzAwMDAwMDtzdHJva2Utd2lkdGg6MTI7c3Ryb2tlLWxpbmVjYXA6cm91bmQ7c3Ryb2tlLWxpbmVqb2luOnJvdW5kO3N0cm9rZS1taXRlcmxpbWl0OjEwO3N0cm9rZS1kYXNoYXJyYXk6bm9uZTtzdHJva2Utb3BhY2l0eToxIiBkPSJtIDAsLTI4LjUgYyAxNS43NDAxMiwwIDI4LjUsMTIuNzU5ODggMjguNSwyOC41Ii8+JiN4YTsgICAgICAgIDwvZz4mI3hhOyAgICAgICAgPHBhdGggaWQ9InBhdGg0MiIgc3R5bGU9ImZpbGw6bm9uZTtzdHJva2U6IzAwMDAwMDtzdHJva2Utd2lkdGg6MTI7c3Ryb2tlLWxpbmVjYXA6cm91bmQ7c3Ryb2tlLWxpbmVqb2luOnJvdW5kO3N0cm9rZS1taXRlcmxpbWl0OjEwO3N0cm9rZS1kYXNoYXJyYXk6bm9uZTtzdHJva2Utb3BhY2l0eToxIiBkPSJtIDMxMzcsMTE5MjUgaCA4NSIvPiYjeGE7ICAgICAgICA8cGF0aCBpZD0icGF0aDQ0IiBzdHlsZT0iZmlsbDpub25lO3N0cm9rZTojMDAwMDAwO3N0cm9rZS13aWR0aDoxMjtzdHJva2UtbGluZWNhcDpyb3VuZDtzdHJva2UtbGluZWpvaW46cm91bmQ7c3Ryb2tlLW1pdGVybGltaXQ6MTA7c3Ryb2tlLWRhc2hhcnJheTpub25lO3N0cm9rZS1vcGFjaXR5OjEiIGQ9Im0gMzEzNyw4NzM1IGggODUiLz4mI3hhOyAgICAgICAgPHBhdGggaWQ9InBhdGg0NiIgc3R5bGU9ImZpbGw6bm9uZTtzdHJva2U6IzAwMDAwMDtzdHJva2Utd2lkdGg6MTI7c3Ryb2tlLWxpbmVjYXA6cm91bmQ7c3Ryb2tlLWxpbmVqb2luOnJvdW5kO3N0cm9rZS1taXRlcmxpbWl0OjEwO3N0cm9rZS1kYXNoYXJyYXk6bm9uZTtzdHJva2Utb3BhY2l0eToxIiBkPSJtIDMyMjIuNSw4NzM1IGMgMTUuNzQwMiwwIDI4LjUsMTIuNzU5OCAyOC41LDI4LjUiLz4mI3hhOyAgICAgICAgPGcgdHJhbnNmb3JtPSJyb3RhdGUoMTgwLDE2MTEuMjUsNTk0OC43NSkiIGlkPSJnNDgiPiYjeGE7ICAgICAgICAgIDxwYXRoIGlkPSJwYXRoNTAiIHN0eWxlPSJmaWxsOm5vbmU7c3Ryb2tlOiMwMDAwMDA7c3Ryb2tlLXdpZHRoOjEyO3N0cm9rZS1saW5lY2FwOnJvdW5kO3N0cm9rZS1saW5lam9pbjpyb3VuZDtzdHJva2UtbWl0ZXJsaW1pdDoxMDtzdHJva2UtZGFzaGFycmF5Om5vbmU7c3Ryb2tlLW9wYWNpdHk6MSIgZD0ibSAtMjguNSwwIGMgMCwtMTUuNzQwMTIgMTIuNzU5ODgsLTI4LjUgMjguNSwtMjguNSIvPiYjeGE7ICAgICAgICA8L2c+JiN4YTsgICAgICAgIDxwYXRoIGlkPSJwYXRoNTIiIHN0eWxlPSJmaWxsOm5vbmU7c3Ryb2tlOiMwMDAwMDA7c3Ryb2tlLXdpZHRoOjEyO3N0cm9rZS1saW5lY2FwOnJvdW5kO3N0cm9rZS1saW5lam9pbjpyb3VuZDtzdHJva2UtbWl0ZXJsaW1pdDoxMDtzdHJva2UtZGFzaGFycmF5Om5vbmU7c3Ryb2tlLW9wYWNpdHk6MSIgZD0ibSA3MzYxLDkwMzMgdiAyIDYgOSAxNCAxNyAyMCAyNCAyOCAzMSAzNSAzOCA0MSA0NCA0NyA0OSA1MiA1NSA1NyA1OSA2MiA2MyA2NCA2NiA2NyA2OCA2OSA3MCA3MCA3MCA3MCA3MCA3MCA2OSA2OCA2NyA2NiA2NCA2MyA2MiA1OSA1NyA1NSA1MiA0OSA0NyA0NCA0MSAzOCAzNSAzMSAyOCAyNCAyMCAxNyAxNCA5IDYgMiIvPiYjeGE7ICAgICAgICA8cGF0aCBpZD0icGF0aDU0IiBzdHlsZT0iZmlsbDpub25lO3N0cm9rZTojMDAwMDAwO3N0cm9rZS13aWR0aDoxMjtzdHJva2UtbGluZWNhcDpyb3VuZDtzdHJva2UtbGluZWpvaW46cm91bmQ7c3Ryb2tlLW1pdGVybGltaXQ6MTA7c3Ryb2tlLWRhc2hhcnJheTpub25lO3N0cm9rZS1vcGFjaXR5OjEiIGQ9Im0gNjY1Miw4NzYzIHYgMiA2IDExIDE0IDE3IDIyIDI2IDI5IDM0IDM2IDQxIDQzIDQ3IDUwIDU0IDU2IDU5IDYxIDY0IDY2IDY5IDcwIDcyIDc0IDc1IDc2IDc4IDc4IDc5IDc5IDc5IDc5IDc5IDc5IDc4IDc4IDc2IDc1IDc0IDcyIDcwIDY5IDY2IDY0IDYxIDU5IDU2IDU0IDUwIDQ3IDQzIDQxIDM2IDM0IDI5IDI2IDIyIDE3IDE0IDExIDYgMiIvPiYjeGE7ICAgICAgICA8cGF0aCBpZD0icGF0aDU2IiBzdHlsZT0iZmlsbDpub25lO3N0cm9rZTojMDAwMDAwO3N0cm9rZS13aWR0aDoxMjtzdHJva2UtbGluZWNhcDpyb3VuZDtzdHJva2UtbGluZWpvaW46cm91bmQ7c3Ryb2tlLW1pdGVybGltaXQ6MTA7c3Ryb2tlLWRhc2hhcnJheTpub25lO3N0cm9rZS1vcGFjaXR5OjEiIGQ9Im0gNjc5NCwxMTg5NyB2IC0yIC02IC0xMSAtMTQgLTE3IC0yMiAtMjYgLTI5IC0zNCAtMzYgLTQxIC00MyAtNDcgLTUwIC01NCAtNTYgLTU5IC02MSAtNjQgLTY2IC02OSAtNzAgLTcyIC03NCAtNzUgLTc2IC03OCAtNzggLTc5IC03OSAtNzkgLTc5IC03OSAtNzkgLTc4IC03OCAtNzYgLTc1IC03NCAtNzIgLTcwIC02OSAtNjYgLTY0IC02MSAtNTkgLTU2IC01NCAtNTAgLTQ3IC00MyAtNDEgLTM2IC0zNCAtMjkgLTI2IC0yMiAtMTcgLTE0IC0xMSAtNiAtMiIvPiYjeGE7ICAgICAgICA8cGF0aCBpZD0icGF0aDU4IiBzdHlsZT0iZmlsbDpub25lO3N0cm9rZTojMDAwMDAwO3N0cm9rZS13aWR0aDoxMjtzdHJva2UtbGluZWNhcDpyb3VuZDtzdHJva2UtbGluZWpvaW46cm91bmQ7c3Ryb2tlLW1pdGVybGltaXQ6MTA7c3Ryb2tlLWRhc2hhcnJheTpub25lO3N0cm9rZS1vcGFjaXR5OjEiIGQ9Ik0gNzMxMS41MDc4LDg5NzcuNDM2NSBDIDczMzkuNzgyMiw4OTgwLjk3MDcgNzM2MSw5MDA1LjAwNTkgNzM2MSw5MDMzLjUiLz4mI3hhOyAgICAgICAgPGcgdHJhbnNmb3JtPSJtYXRyaXgoLTAuOTkyMjgsMC4xMjQwMywtMC4xMjQwMywtMC45OTIyOCw3MzA0LjUsMTE2MjcuNSkiIGlkPSJnNjAiPiYjeGE7ICAgICAgICAgIDxwYXRoIGlkPSJwYXRoNjIiIHN0eWxlPSJmaWxsOm5vbmU7c3Ryb2tlOiMwMDAwMDA7c3Ryb2tlLXdpZHRoOjEyO3N0cm9rZS1saW5lY2FwOnJvdW5kO3N0cm9rZS1saW5lam9pbjpyb3VuZDtzdHJva2UtbWl0ZXJsaW1pdDoxMDtzdHJva2UtZGFzaGFycmF5Om5vbmU7c3Ryb2tlLW9wYWNpdHk6MSIgZD0iTSAtNTYuMDYzNzUsLTcuMDA3NTkgQyAtNTIuNTI5NjQsLTM1LjI4MTk4IC0yOC40OTQ0MSwtNTYuNSAwLC01Ni41Ii8+JiN4YTsgICAgICAgIDwvZz4mI3hhOyAgICAgICAgPHBhdGggaWQ9InBhdGg2NCIgc3R5bGU9ImZpbGw6bm9uZTtzdHJva2U6IzAwMDAwMDtzdHJva2Utd2lkdGg6MTI7c3Ryb2tlLWxpbmVjYXA6cm91bmQ7c3Ryb2tlLWxpbmVqb2luOnJvdW5kO3N0cm9rZS1taXRlcmxpbWl0OjEwO3N0cm9rZS1kYXNoYXJyYXk6bm9uZTtzdHJva2Utb3BhY2l0eToxIiBkPSJtIDczMTEsODk3NyAtNTE3LC02NSIvPiYjeGE7ICAgICAgICA8cGF0aCBpZD0icGF0aDY2IiBzdHlsZT0iZmlsbDpub25lO3N0cm9rZTojMDAwMDAwO3N0cm9rZS13aWR0aDoxMjtzdHJva2UtbGluZWNhcDpyb3VuZDtzdHJva2UtbGluZWpvaW46cm91bmQ7c3Ryb2tlLW1pdGVybGltaXQ6MTA7c3Ryb2tlLWRhc2hhcnJheTpub25lO3N0cm9rZS1vcGFjaXR5OjEiIGQ9Im0gNzMxMSwxMTY4MyAtNTE3LDY1Ii8+JiN4YTsgICAgICAgIDxnIHRyYW5zZm9ybT0icm90YXRlKDE4MCwzMzgyLjc1LDU5NDguNzUpIiBpZD0iZzY4Ij4mI3hhOyAgICAgICAgICA8cGF0aCBpZD0icGF0aDcwIiBzdHlsZT0iZmlsbDpub25lO3N0cm9rZTojMDAwMDAwO3N0cm9rZS13aWR0aDoxMjtzdHJva2UtbGluZWNhcDpyb3VuZDtzdHJva2UtbGluZWpvaW46cm91bmQ7c3Ryb2tlLW1pdGVybGltaXQ6MTA7c3Ryb2tlLWRhc2hhcnJheTpub25lO3N0cm9rZS1vcGFjaXR5OjEiIGQ9Im0gLTI4LjUsMCBjIDAsLTE1Ljc0MDEyIDEyLjc1OTg4LC0yOC41IDI4LjUsLTI4LjUiLz4mI3hhOyAgICAgICAgPC9nPiYjeGE7ICAgICAgICA8cGF0aCBpZD0icGF0aDcyIiBzdHlsZT0iZmlsbDpub25lO3N0cm9rZTojMDAwMDAwO3N0cm9rZS13aWR0aDoxMjtzdHJva2UtbGluZWNhcDpyb3VuZDtzdHJva2UtbGluZWpvaW46cm91bmQ7c3Ryb2tlLW1pdGVybGltaXQ6MTA7c3Ryb2tlLWRhc2hhcnJheTpub25lO3N0cm9rZS1vcGFjaXR5OjEiIGQ9Im0gNjc2NS41LDg3MzUgYyAxNS43NDAyLDAgMjguNSwxMi43NTk4IDI4LjUsMjguNSIvPiYjeGE7ICAgICAgICA8cGF0aCBpZD0icGF0aDc0IiBzdHlsZT0iZmlsbDpub25lO3N0cm9rZTojMDAwMDAwO3N0cm9rZS13aWR0aDoxMjtzdHJva2UtbGluZWNhcDpyb3VuZDtzdHJva2UtbGluZWpvaW46cm91bmQ7c3Ryb2tlLW1pdGVybGltaXQ6MTA7c3Ryb2tlLWRhc2hhcnJheTpub25lO3N0cm9rZS1vcGFjaXR5OjEiIGQ9Im0gNjY4MCwxMTkyNSBoIDg1Ii8+JiN4YTsgICAgICAgIDxwYXRoIGlkPSJwYXRoNzYiIHN0eWxlPSJmaWxsOm5vbmU7c3Ryb2tlOiMwMDAwMDA7c3Ryb2tlLXdpZHRoOjEyO3N0cm9rZS1saW5lY2FwOnJvdW5kO3N0cm9rZS1saW5lam9pbjpyb3VuZDtzdHJva2UtbWl0ZXJsaW1pdDoxMDtzdHJva2UtZGFzaGFycmF5Om5vbmU7c3Ryb2tlLW9wYWNpdHk6MSIgZD0ibSA2NjgwLDg3MzUgaCA4NSIvPiYjeGE7ICAgICAgICA8ZyB0cmFuc2Zvcm09InJvdGF0ZSgxODAsMzM0MC4yNSw1OTQ4Ljc1KSIgaWQ9Imc3OCI+JiN4YTsgICAgICAgICAgPHBhdGggaWQ9InBhdGg4MCIgc3R5bGU9ImZpbGw6bm9uZTtzdHJva2U6IzAwMDAwMDtzdHJva2Utd2lkdGg6MTI7c3Ryb2tlLWxpbmVjYXA6cm91bmQ7c3Ryb2tlLWxpbmVqb2luOnJvdW5kO3N0cm9rZS1taXRlcmxpbWl0OjEwO3N0cm9rZS1kYXNoYXJyYXk6bm9uZTtzdHJva2Utb3BhY2l0eToxIiBkPSJtIDAsLTI4LjUgYyAxNS43NDAxMiwwIDI4LjUsMTIuNzU5ODggMjguNSwyOC41Ii8+JiN4YTsgICAgICAgIDwvZz4mI3hhOyAgICAgICAgPHBhdGggaWQ9InBhdGg4MiIgc3R5bGU9ImZpbGw6bm9uZTtzdHJva2U6IzAwMDAwMDtzdHJva2Utd2lkdGg6MTI7c3Ryb2tlLWxpbmVjYXA6cm91bmQ7c3Ryb2tlLWxpbmVqb2luOnJvdW5kO3N0cm9rZS1taXRlcmxpbWl0OjEwO3N0cm9rZS1kYXNoYXJyYXk6bm9uZTtzdHJva2Utb3BhY2l0eToxIiBkPSJtIDY2NTIsODc2My41IGMgMCwtMTUuNzQwMiAxMi43NTk4LC0yOC41IDI4LjUsLTI4LjUiLz4mI3hhOyAgICAgICAgPHBhdGggaWQ9InBhdGg4NCIgc3R5bGU9ImZpbGw6bm9uZTtzdHJva2U6IzAwMDAwMDtzdHJva2Utd2lkdGg6MTI7c3Ryb2tlLWxpbmVjYXA6cm91bmQ7c3Ryb2tlLWxpbmVqb2luOnJvdW5kO3N0cm9rZS1taXRlcmxpbWl0OjEwO3N0cm9rZS1kYXNoYXJyYXk6bm9uZTtzdHJva2Utb3BhY2l0eToxIiBkPSJtIDE2MjAsMTA2MDkgdiAtMiAtNyAtMTAgLTEzIC0xOCAtMjAgLTI0IC0yNyAtMjkgLTMwIC0zMiAtMzMgLTM0IC0zNCAtMzMgLTMyIC0zMCAtMjkgLTI3IC0yNCAtMjAgLTE4IC0xMyAtMTAgLTcgLTIiLz4mI3hhOyAgICAgICAgPHBhdGggaWQ9InBhdGg4NiIgc3R5bGU9ImZpbGw6bm9uZTtzdHJva2U6IzAwMDAwMDtzdHJva2Utd2lkdGg6MTI7c3Ryb2tlLWxpbmVjYXA6cm91bmQ7c3Ryb2tlLWxpbmVqb2luOnJvdW5kO3N0cm9rZS1taXRlcmxpbWl0OjEwO3N0cm9rZS1kYXNoYXJyYXk6bm9uZTtzdHJva2Utb3BhY2l0eToxIiBkPSJtIDgyODIsMTAwNTEgdiAyIDcgMTAgMTMgMTggMjAgMjQgMjcgMjkgMzAgMzIgMzMgMzQgMzQgMzMgMzIgMzAgMjkgMjcgMjQgMjAgMTggMTMgMTAgNyAyIi8+JiN4YTsgICAgICAgIDxwYXRoIGlkPSJwYXRoODgiIHN0eWxlPSJmaWxsOm5vbmU7c3Ryb2tlOiMwMDAwMDA7c3Ryb2tlLXdpZHRoOjEyO3N0cm9rZS1saW5lY2FwOnJvdW5kO3N0cm9rZS1saW5lam9pbjpyb3VuZDtzdHJva2UtbWl0ZXJsaW1pdDoxMDtzdHJva2UtZGFzaGFycmF5Om5vbmU7c3Ryb2tlLW9wYWNpdHk6MSIgZD0iTSAzMjUwLDEwMDIzIEggNjY1MiIvPiYjeGE7ICAgICAgICA8ZyB0cmFuc2Zvcm09InJvdGF0ZSgxODAsODI0LjI1LDUzMDQuNzUpIiBpZD0iZzkwIj4mI3hhOyAgICAgICAgICA8cGF0aCBpZD0icGF0aDkyIiBzdHlsZT0iZmlsbDpub25lO3N0cm9rZTojMDAwMDAwO3N0cm9rZS13aWR0aDoxMjtzdHJva2UtbGluZWNhcDpyb3VuZDtzdHJva2UtbGluZWpvaW46cm91bmQ7c3Ryb2tlLW1pdGVybGltaXQ6MTA7c3Ryb2tlLWRhc2hhcnJheTpub25lO3N0cm9rZS1vcGFjaXR5OjEiIGQ9Im0gMCwtMjguNSBjIDE1Ljc0MDEyLDAgMjguNSwxMi43NTk4OCAyOC41LDI4LjUiLz4mI3hhOyAgICAgICAgPC9nPiYjeGE7ICAgICAgICA8cGF0aCBpZD0icGF0aDk0IiBzdHlsZT0iZmlsbDpub25lO3N0cm9rZTojMDAwMDAwO3N0cm9rZS13aWR0aDoxMjtzdHJva2UtbGluZWNhcDpyb3VuZDtzdHJva2UtbGluZWpvaW46cm91bmQ7c3Ryb2tlLW1pdGVybGltaXQ6MTA7c3Ryb2tlLWRhc2hhcnJheTpub25lO3N0cm9rZS1vcGFjaXR5OjEiIGQ9Im0gMTYyMCwxMDA1MS41IGMgMCwtMTUuNzQgMTIuNzU5OSwtMjguNSAyOC41LC0yOC41Ii8+JiN4YTsgICAgICAgIDxwYXRoIGlkPSJwYXRoOTYiIHN0eWxlPSJmaWxsOm5vbmU7c3Ryb2tlOiMwMDAwMDA7c3Ryb2tlLXdpZHRoOjEyO3N0cm9rZS1saW5lY2FwOnJvdW5kO3N0cm9rZS1saW5lam9pbjpyb3VuZDtzdHJva2UtbWl0ZXJsaW1pdDoxMDtzdHJva2UtZGFzaGFycmF5Om5vbmU7c3Ryb2tlLW9wYWNpdHk6MSIgZD0iTSAyNTQxLDEwMDIzIEggMTY0OCIvPiYjeGE7ICAgICAgICA8cGF0aCBpZD0icGF0aDk4IiBzdHlsZT0iZmlsbDpub25lO3N0cm9rZTojMDAwMDAwO3N0cm9rZS13aWR0aDoxMjtzdHJva2UtbGluZWNhcDpyb3VuZDtzdHJva2UtbGluZWpvaW46cm91bmQ7c3Ryb2tlLW1pdGVybGltaXQ6MTA7c3Ryb2tlLWRhc2hhcnJheTpub25lO3N0cm9rZS1vcGFjaXR5OjEiIGQ9Ik0gMjU0MSwxMDYzNyBIIDE2NDgiLz4mI3hhOyAgICAgICAgPHBhdGggaWQ9InBhdGgxMDAiIHN0eWxlPSJmaWxsOm5vbmU7c3Ryb2tlOiMwMDAwMDA7c3Ryb2tlLXdpZHRoOjEyO3N0cm9rZS1saW5lY2FwOnJvdW5kO3N0cm9rZS1saW5lam9pbjpyb3VuZDtzdHJva2UtbWl0ZXJsaW1pdDoxMDtzdHJva2UtZGFzaGFycmF5Om5vbmU7c3Ryb2tlLW9wYWNpdHk6MSIgZD0ibSA4MjU0LjUsMTAwMjMgYyAxNS43NDAyLDAgMjguNSwxMi43NiAyOC41LDI4LjUiLz4mI3hhOyAgICAgICAgPGcgdHJhbnNmb3JtPSJyb3RhdGUoMTgwLDQxMjcuMjUsNTMwNC43NSkiIGlkPSJnMTAyIj4mI3hhOyAgICAgICAgICA8cGF0aCBpZD0icGF0aDEwNCIgc3R5bGU9ImZpbGw6bm9uZTtzdHJva2U6IzAwMDAwMDtzdHJva2Utd2lkdGg6MTI7c3Ryb2tlLWxpbmVjYXA6cm91bmQ7c3Ryb2tlLWxpbmVqb2luOnJvdW5kO3N0cm9rZS1taXRlcmxpbWl0OjEwO3N0cm9rZS1kYXNoYXJyYXk6bm9uZTtzdHJva2Utb3BhY2l0eToxIiBkPSJtIC0yOC41LDAgYyAwLC0xNS43NDAxMiAxMi43NTk4OCwtMjguNSAyOC41LC0yOC41Ii8+JiN4YTsgICAgICAgIDwvZz4mI3hhOyAgICAgICAgPHBhdGggaWQ9InBhdGgxMDYiIHN0eWxlPSJmaWxsOm5vbmU7c3Ryb2tlOiMwMDAwMDA7c3Ryb2tlLXdpZHRoOjEyO3N0cm9rZS1saW5lY2FwOnJvdW5kO3N0cm9rZS1saW5lam9pbjpyb3VuZDtzdHJva2UtbWl0ZXJsaW1pdDoxMDtzdHJva2UtZGFzaGFycmF5Om5vbmU7c3Ryb2tlLW9wYWNpdHk6MSIgZD0iTSA4MjU0LDEwMDIzIEggNzM2MSIvPiYjeGE7ICAgICAgICA8cGF0aCBpZD0icGF0aDEwOCIgc3R5bGU9ImZpbGw6bm9uZTtzdHJva2U6IzAwMDAwMDtzdHJva2Utd2lkdGg6MTI7c3Ryb2tlLWxpbmVjYXA6cm91bmQ7c3Ryb2tlLWxpbmVqb2luOnJvdW5kO3N0cm9rZS1taXRlcmxpbWl0OjEwO3N0cm9rZS1kYXNoYXJyYXk6bm9uZTtzdHJva2Utb3BhY2l0eToxIiBkPSJNIDgyNTQsMTA2MzcgSCA3MzYxIi8+JiN4YTsgICAgICAgIDxwYXRoIGlkPSJwYXRoMTEwIiBzdHlsZT0iZmlsbDpub25lO3N0cm9rZTojMDAwMDAwO3N0cm9rZS13aWR0aDoxMjtzdHJva2UtbGluZWNhcDpyb3VuZDtzdHJva2UtbGluZWpvaW46cm91bmQ7c3Ryb2tlLW1pdGVybGltaXQ6MTA7c3Ryb2tlLWRhc2hhcnJheTpub25lO3N0cm9rZS1vcGFjaXR5OjEiIGQ9Ik0gNjY1MiwxMDY4NCBIIDMyNTAiLz4mI3hhOyAgICAgIDwvZz4mI3hhOyAgICA8L2c+JiN4YTsgICAgPGcgaWQ9ImcxMTIiPiYjeGE7ICAgICAgPGcgY2xpcC1wYXRoPSJ1cmwoI2NsaXBQYXRoMTE4KSIgaWQ9ImcxMTQiPiYjeGE7ICAgICAgICA8ZyB0cmFuc2Zvcm09InJvdGF0ZSgtMTc5Ljk4OTExLDI0NTguNTQwMywzMDU2LjAxNjQpIiBpZD0iZzEyMCI+JiN4YTsgICAgICAgICAgPHBhdGggaWQ9InBhdGgxMjIiIHN0eWxlPSJmaWxsOm5vbmU7c3Ryb2tlOiMwMDAwMDA7c3Ryb2tlLXdpZHRoOjEyO3N0cm9rZS1saW5lY2FwOnJvdW5kO3N0cm9rZS1saW5lam9pbjpyb3VuZDtzdHJva2UtbWl0ZXJsaW1pdDoxMDtzdHJva2UtZGFzaGFycmF5Om5vbmU7c3Ryb2tlLW9wYWNpdHk6MSIgZD0iTSAxNDE3LjUsMCBDIDE0MTcuNSw3ODIuODYzNjUgNzgyLjg2MzY1LDE0MTcuNSAwLDE0MTcuNSAtNzgyLjg2MzY1LDE0MTcuNSAtMTQxNy41LDc4Mi44NjM2NSAtMTQxNy41LDAgYyAwLC03ODIuODYzNjUgNjM0LjYzNjM1LC0xNDE3LjUgMTQxNy41LC0xNDE3LjUgNzgyLjg2MzY1LDAgMTQxNy41LDYzNC42MzYzNSAxNDE3LjUsMTQxNy41Ii8+JiN4YTsgICAgICAgIDwvZz4mI3hhOyAgICAgICAgPGcgdHJhbnNmb3JtPSJyb3RhdGUoMC4wMTA4ODYyLC0zMjE3MTA1Myw0Mjk0OTY3MzAwKSIgaWQ9ImcxMjQiPiYjeGE7ICAgICAgICAgIDxwYXRoIGlkPSJwYXRoMTI2IiBzdHlsZT0iZmlsbDpub25lO3N0cm9rZTojMDAwMDAwO3N0cm9rZS13aWR0aDoxMjtzdHJva2UtbGluZWNhcDpyb3VuZDtzdHJva2UtbGluZWpvaW46cm91bmQ7c3Ryb2tlLW1pdGVybGltaXQ6MTA7c3Ryb2tlLWRhc2hhcnJheTpub25lO3N0cm9rZS1vcGFjaXR5OjEiIGQ9Ik0gMTU5NC41LDAgQyAxNTk0LjUsODgwLjYxODEgODgwLjYxODEsMTU5NC41IDAsMTU5NC41IC04ODAuNjE4MSwxNTk0LjUgLTE1OTQuNSw4ODAuNjE4MSAtMTU5NC41LDAgYyAwLC04ODAuNjE4MSA3MTMuODgxOSwtMTU5NC41IDE1OTQuNSwtMTU5NC41IDg4MC42MTgxLDAgMTU5NC41LDcxMy44ODE5IDE1OTQuNSwxNTk0LjUiLz4mI3hhOyAgICAgICAgPC9nPiYjeGE7ICAgICAgICA8cGF0aCBpZD0icGF0aDEyOCIgc3R5bGU9ImZpbGw6bm9uZTtzdHJva2U6IzAwMDAwMDtzdHJva2Utd2lkdGg6MTI7c3Ryb2tlLWxpbmVjYXA6cm91bmQ7c3Ryb2tlLWxpbmVqb2luOnJvdW5kO3N0cm9rZS1taXRlcmxpbWl0OjEwO3N0cm9rZS1kYXNoYXJyYXk6bm9uZTtzdHJva2Utb3BhY2l0eToxIiBkPSJtIDQ3MzEsNTc5MSAtMyw0IC0yLDUgLTMsNCAtMyw0IC01LDkgLTUsOSAtMiw0IC0zLDQgLTIsNSAtMiw0IC0zLDQgLTIsNCAtMyw0IC0yLDQiLz4mI3hhOyAgICAgICAgPHBhdGggaWQ9InBhdGgxMzAiIHN0eWxlPSJmaWxsOm5vbmU7c3Ryb2tlOiMwMDAwMDA7c3Ryb2tlLXdpZHRoOjEyO3N0cm9rZS1saW5lY2FwOnJvdW5kO3N0cm9rZS1saW5lam9pbjpyb3VuZDtzdHJva2UtbWl0ZXJsaW1pdDoxMDtzdHJva2UtZGFzaGFycmF5Om5vbmU7c3Ryb2tlLW9wYWNpdHk6MSIgZD0ibSA0NTg1LDYwNDMgLTMsNCAtMiw1IC0yLDQgLTMsNCAtMiw0IC0zLDQgLTIsNSAtMyw0IC01LDkgLTUsOCAtMiw1IC0zLDQgLTIsNSAtMyw0IDMsNCAyLDUgMyw0IDIsNSA1LDggNSw5IDMsNCAyLDUgMyw0IDIsNCAzLDQgMiw0IDIsNCAzLDUiLz4mI3hhOyAgICAgICAgPHBhdGggaWQ9InBhdGgxMzIiIHN0eWxlPSJmaWxsOm5vbmU7c3Ryb2tlOiMwMDAwMDA7c3Ryb2tlLXdpZHRoOjEyO3N0cm9rZS1saW5lY2FwOnJvdW5kO3N0cm9rZS1saW5lam9pbjpyb3VuZDtzdHJva2UtbWl0ZXJsaW1pdDoxMDtzdHJva2UtZGFzaGFycmF5Om5vbmU7c3Ryb2tlLW9wYWNpdHk6MSIgZD0ibSA0NjkxLDYzNjQgMiw1IDMsNCAyLDQgMiw0IDMsNCAyLDQgMyw1IDIsNCA1LDkgNSw4IDMsNSAyLDQgMyw1IDMsNCBoIDUgNSA1IDUgMTAgMTAgNSA1IDUgNSA1IDQgNSA1Ii8+JiN4YTsgICAgICAgIDxwYXRoIGlkPSJwYXRoMTM0IiBzdHlsZT0iZmlsbDpub25lO3N0cm9rZTojMDAwMDAwO3N0cm9rZS13aWR0aDoxMjtzdHJva2UtbGluZWNhcDpyb3VuZDtzdHJva2UtbGluZWpvaW46cm91bmQ7c3Ryb2tlLW1pdGVybGltaXQ6MTA7c3Ryb2tlLWRhc2hhcnJheTpub25lO3N0cm9rZS1vcGFjaXR5OjEiIGQ9Im0gNTAyMiw2NDMzIGggNSA1IDQgNSA1IDUgNSA1IDEwIDEwIDUgNSA1IDUgbCAzLC00IDIsLTUgMywtNCAzLC00IDUsLTkgNSwtOSAyLC00IDMsLTQgMiwtNSAyLC00IDMsLTQgMiwtNCAzLC00IDIsLTQiLz4mI3hhOyAgICAgICAgPHBhdGggaWQ9InBhdGgxMzYiIHN0eWxlPSJmaWxsOm5vbmU7c3Ryb2tlOiMwMDAwMDA7c3Ryb2tlLXdpZHRoOjEyO3N0cm9rZS1saW5lY2FwOnJvdW5kO3N0cm9rZS1saW5lam9pbjpyb3VuZDtzdHJva2UtbWl0ZXJsaW1pdDoxMDtzdHJva2UtZGFzaGFycmF5Om5vbmU7c3Ryb2tlLW9wYWNpdHk6MSIgZD0ibSA1MjQ3LDYxODEgMywtNCAyLC01IDIsLTQgMywtNCAyLC00IDMsLTQgMiwtNSAzLC00IDUsLTkgNSwtOCAyLC01IDMsLTQgMiwtNSAzLC00IC0zLC00IC0yLC01IC0zLC00IC0yLC01IC01LC04IC01LC05IC0zLC00IC0yLC01IC0zLC00IC0yLC00IC0zLC00IC0yLC00IC0yLC00IC0zLC01Ii8+JiN4YTsgICAgICAgIDxwYXRoIGlkPSJwYXRoMTM4IiBzdHlsZT0iZmlsbDpub25lO3N0cm9rZTojMDAwMDAwO3N0cm9rZS13aWR0aDoxMjtzdHJva2UtbGluZWNhcDpyb3VuZDtzdHJva2UtbGluZWpvaW46cm91bmQ7c3Ryb2tlLW1pdGVybGltaXQ6MTA7c3Ryb2tlLWRhc2hhcnJheTpub25lO3N0cm9rZS1vcGFjaXR5OjEiIGQ9Im0gNTE0MSw1ODYwIC0yLC01IC0zLC00IC0yLC00IC0yLC00IC0zLC00IC0yLC00IC0zLC01IC0yLC00IC01LC05IC01LC04IC0zLC01IC0yLC00IC0zLC01IC0zLC00IGggLTUgLTUgLTUgLTUgLTEwIC0xMCAtNSAtNSAtNSAtNSAtNSAtNCAtNSAtNSIvPiYjeGE7ICAgICAgICA8cGF0aCBpZD0icGF0aDE0MCIgc3R5bGU9ImZpbGw6bm9uZTtzdHJva2U6IzAwMDAwMDtzdHJva2Utd2lkdGg6MTI7c3Ryb2tlLWxpbmVjYXA6cm91bmQ7c3Ryb2tlLWxpbmVqb2luOnJvdW5kO3N0cm9rZS1taXRlcmxpbWl0OjEwO3N0cm9rZS1kYXNoYXJyYXk6bm9uZTtzdHJva2Utb3BhY2l0eToxIiBkPSJtIDQ4MTAsNTc5MSBoIC01IC01IC00IC01IC01IC01IC01IC01IC0xMCAtMTAgLTUgLTUgLTUgLTUiLz4mI3hhOyAgICAgICAgPHBhdGggaWQ9InBhdGgxNDIiIHN0eWxlPSJmaWxsOm5vbmU7c3Ryb2tlOiMwMDAwMDA7c3Ryb2tlLXdpZHRoOjEyO3N0cm9rZS1saW5lY2FwOnJvdW5kO3N0cm9rZS1saW5lam9pbjpyb3VuZDtzdHJva2UtbWl0ZXJsaW1pdDoxMDtzdHJva2UtZGFzaGFycmF5Om5vbmU7c3Ryb2tlLW9wYWNpdHk6MSIgZD0ibSA1MTQxLDYzNjUgMTA2LC0xODQiLz4mI3hhOyAgICAgICAgPHBhdGggaWQ9InBhdGgxNDQiIHN0eWxlPSJmaWxsOm5vbmU7c3Ryb2tlOiMwMDAwMDA7c3Ryb2tlLXdpZHRoOjEyO3N0cm9rZS1saW5lY2FwOnJvdW5kO3N0cm9rZS1saW5lam9pbjpyb3VuZDtzdHJva2UtbWl0ZXJsaW1pdDoxMDtzdHJva2UtZGFzaGFycmF5Om5vbmU7c3Ryb2tlLW9wYWNpdHk6MSIgZD0ibSA0ODEwLDY0MzMgaCAyMTIiLz4mI3hhOyAgICAgICAgPHBhdGggaWQ9InBhdGgxNDYiIHN0eWxlPSJmaWxsOm5vbmU7c3Ryb2tlOiMwMDAwMDA7c3Ryb2tlLXdpZHRoOjEyO3N0cm9rZS1saW5lY2FwOnJvdW5kO3N0cm9rZS1saW5lam9pbjpyb3VuZDtzdHJva2UtbWl0ZXJsaW1pdDoxMDtzdHJva2UtZGFzaGFycmF5Om5vbmU7c3Ryb2tlLW9wYWNpdHk6MSIgZD0ibSA0NTg1LDYxODEgMTA2LDE4MyIvPiYjeGE7ICAgICAgICA8cGF0aCBpZD0icGF0aDE0OCIgc3R5bGU9ImZpbGw6bm9uZTtzdHJva2U6IzAwMDAwMDtzdHJva2Utd2lkdGg6MTI7c3Ryb2tlLWxpbmVjYXA6cm91bmQ7c3Ryb2tlLWxpbmVqb2luOnJvdW5kO3N0cm9rZS1taXRlcmxpbWl0OjEwO3N0cm9rZS1kYXNoYXJyYXk6bm9uZTtzdHJva2Utb3BhY2l0eToxIiBkPSJtIDQ2OTEsNTg1OSAtMTA2LDE4NCIvPiYjeGE7ICAgICAgICA8cGF0aCBpZD0icGF0aDE1MCIgc3R5bGU9ImZpbGw6bm9uZTtzdHJva2U6IzAwMDAwMDtzdHJva2Utd2lkdGg6MTI7c3Ryb2tlLWxpbmVjYXA6cm91bmQ7c3Ryb2tlLWxpbmVqb2luOnJvdW5kO3N0cm9rZS1taXRlcmxpbWl0OjEwO3N0cm9rZS1kYXNoYXJyYXk6bm9uZTtzdHJva2Utb3BhY2l0eToxIiBkPSJNIDUwMjIsNTc5MSBIIDQ4MTAiLz4mI3hhOyAgICAgICAgPHBhdGggaWQ9InBhdGgxNTIiIHN0eWxlPSJmaWxsOm5vbmU7c3Ryb2tlOiMwMDAwMDA7c3Ryb2tlLXdpZHRoOjEyO3N0cm9rZS1saW5lY2FwOnJvdW5kO3N0cm9rZS1saW5lam9pbjpyb3VuZDtzdHJva2UtbWl0ZXJsaW1pdDoxMDtzdHJva2UtZGFzaGFycmF5Om5vbmU7c3Ryb2tlLW9wYWNpdHk6MSIgZD0iTSA1MjQ3LDYwNDMgNTE0MSw1ODYwIi8+JiN4YTsgICAgICAgIDxnIHRyYW5zZm9ybT0icm90YXRlKDAuMDEwODg2MiwtMzIxNzEwNTMsNDI5NDk2NzMwMCkiIGlkPSJnMTU0Ij4mI3hhOyAgICAgICAgICA8cGF0aCBpZD0icGF0aDE1NiIgc3R5bGU9ImZpbGw6bm9uZTtzdHJva2U6IzAwMDAwMDtzdHJva2Utd2lkdGg6MTI7c3Ryb2tlLWxpbmVjYXA6cm91bmQ7c3Ryb2tlLWxpbmVqb2luOnJvdW5kO3N0cm9rZS1taXRlcmxpbWl0OjEwO3N0cm9rZS1kYXNoYXJyYXk6bm9uZTtzdHJva2Utb3BhY2l0eToxIiBkPSJNIDMwNi41LDAgQyAzMDYuNSwxNjkuMjc1MjggMTY5LjI3NTI4LDMwNi41IDAsMzA2LjUgLTE2OS4yNzUyOCwzMDYuNSAtMzA2LjUsMTY5LjI3NTI4IC0zMDYuNSwwIGMgMCwtMTY5LjI3NTI4IDEzNy4yMjQ3MiwtMzA2LjUgMzA2LjUsLTMwNi41IDE2OS4yNzUyOCwwIDMwNi41LDEzNy4yMjQ3MiAzMDYuNSwzMDYuNSIvPiYjeGE7ICAgICAgICA8L2c+JiN4YTsgICAgICAgIDxnIHRyYW5zZm9ybT0ibWF0cml4KDAuODY2MDksLTAuNDk5ODksMC40OTk4OSwwLjg2NjA5LDQ5MTYuNSw2MTEyLjUpIiBpZD0iZzE1OCI+JiN4YTsgICAgICAgICAgPHBhdGggaWQ9InBhdGgxNjAiIHN0eWxlPSJmaWxsOm5vbmU7c3Ryb2tlOiMwMDAwMDA7c3Ryb2tlLXdpZHRoOjEyO3N0cm9rZS1saW5lY2FwOnJvdW5kO3N0cm9rZS1saW5lam9pbjpyb3VuZDtzdHJva2UtbWl0ZXJsaW1pdDoxMDtzdHJva2UtZGFzaGFycmF5Om5vbmU7c3Ryb2tlLW9wYWNpdHk6MSIgZD0iTSAtMzAuNjUyMTcsLTM1My4xNzIzMyBDIC0yMC40NTg3MywtMzU0LjA1NzA0IC0xMC4yMzE3NiwtMzU0LjUgMCwtMzU0LjUiLz4mI3hhOyAgICAgICAgPC9nPiYjeGE7ICAgICAgICA8ZyB0cmFuc2Zvcm09Im1hdHJpeCgtMC45OTYyNCwtMC4wODY2NiwwLjA4NjY2LC0wLjk5NjI0LDQ5MTYuNSw2MTEyLjUpIiBpZD0iZzE2MiI+JiN4YTsgICAgICAgICAgPHBhdGggaWQ9InBhdGgxNjQiIHN0eWxlPSJmaWxsOm5vbmU7c3Ryb2tlOiMwMDAwMDA7c3Ryb2tlLXdpZHRoOjEyO3N0cm9rZS1saW5lY2FwOnJvdW5kO3N0cm9rZS1saW5lam9pbjpyb3VuZDtzdHJva2UtbWl0ZXJsaW1pdDoxMDtzdHJva2UtZGFzaGFycmF5Om5vbmU7c3Ryb2tlLW9wYWNpdHk6MSIgZD0iTSAzNTMuMTcyMzMsLTMwLjY1MjE3IEMgMzU0LjA1NzA0LC0yMC40NTg3MyAzNTQuNSwtMTAuMjMxNzYgMzU0LjUsMCIvPiYjeGE7ICAgICAgICA8L2c+JiN4YTsgICAgICAgIDxnIHRyYW5zZm9ybT0icm90YXRlKC0xNzkuOTg5MTEsMjQ1OC41NDAzLDMwNTYuMDE2NCkiIGlkPSJnMTY2Ij4mI3hhOyAgICAgICAgICA8cGF0aCBpZD0icGF0aDE2OCIgc3R5bGU9ImZpbGw6bm9uZTtzdHJva2U6IzAwMDAwMDtzdHJva2Utd2lkdGg6MTI7c3Ryb2tlLWxpbmVjYXA6cm91bmQ7c3Ryb2tlLWxpbmVqb2luOnJvdW5kO3N0cm9rZS1taXRlcmxpbWl0OjEwO3N0cm9rZS1kYXNoYXJyYXk6bm9uZTtzdHJva2Utb3BhY2l0eToxIiBkPSJNIDM1My4xNzIzMywtMzAuNjUyMTcgQyAzNTQuMDU3MDQsLTIwLjQ1ODczIDM1NC41LC0xMC4yMzE3NiAzNTQuNSwwIi8+JiN4YTsgICAgICAgIDwvZz4mI3hhOyAgICAgICAgPGcgdHJhbnNmb3JtPSJtYXRyaXgoLTAuODE5NDYsLTAuNTczMTQsMC41NzMxNCwtMC44MTk0Niw0OTE2LjUsNjExMi41KSIgaWQ9ImcxNzAiPiYjeGE7ICAgICAgICAgIDxwYXRoIGlkPSJwYXRoMTcyIiBzdHlsZT0iZmlsbDpub25lO3N0cm9rZTojMDAwMDAwO3N0cm9rZS13aWR0aDoxMjtzdHJva2UtbGluZWNhcDpyb3VuZDtzdHJva2UtbGluZWpvaW46cm91bmQ7c3Ryb2tlLW1pdGVybGltaXQ6MTA7c3Ryb2tlLWRhc2hhcnJheTpub25lO3N0cm9rZS1vcGFjaXR5OjEiIGQ9Ik0gLTMwLjY1MjE3LC0zNTMuMTcyMzMgQyAtMjAuNDU4NzMsLTM1NC4wNTcwNCAtMTAuMjMxNzYsLTM1NC41IDAsLTM1NC41Ii8+JiN4YTsgICAgICAgIDwvZz4mI3hhOyAgICAgICAgPGcgdHJhbnNmb3JtPSJtYXRyaXgoLTAuODY1OTUsLTAuNTAwMTQsMC41MDAxNCwtMC44NjU5NSw0OTE2LjUsNjExMi41KSIgaWQ9ImcxNzQiPiYjeGE7ICAgICAgICAgIDxwYXRoIGlkPSJwYXRoMTc2IiBzdHlsZT0iZmlsbDpub25lO3N0cm9rZTojMDAwMDAwO3N0cm9rZS13aWR0aDoxMjtzdHJva2UtbGluZWNhcDpyb3VuZDtzdHJva2UtbGluZWpvaW46cm91bmQ7c3Ryb2tlLW1pdGVybGltaXQ6MTA7c3Ryb2tlLWRhc2hhcnJheTpub25lO3N0cm9rZS1vcGFjaXR5OjEiIGQ9Ik0gLTMwLjY1MjE3LC0zNTMuMTcyMzMgQyAtMjAuNDU4NzMsLTM1NC4wNTcwNCAtMTAuMjMxNzYsLTM1NC41IDAsLTM1NC41Ii8+JiN4YTsgICAgICAgIDwvZz4mI3hhOyAgICAgICAgPGcgdHJhbnNmb3JtPSJtYXRyaXgoLTAuOTA2MTEsMC40MjMwNCwtMC40MjMwNCwtMC45MDYxMSw0OTE2LjUsNjExMi41KSIgaWQ9ImcxNzgiPiYjeGE7ICAgICAgICAgIDxwYXRoIGlkPSJwYXRoMTgwIiBzdHlsZT0iZmlsbDpub25lO3N0cm9rZTojMDAwMDAwO3N0cm9rZS13aWR0aDoxMjtzdHJva2UtbGluZWNhcDpyb3VuZDtzdHJva2UtbGluZWpvaW46cm91bmQ7c3Ryb2tlLW1pdGVybGltaXQ6MTA7c3Ryb2tlLWRhc2hhcnJheTpub25lO3N0cm9rZS1vcGFjaXR5OjEiIGQ9Ik0gLTMwLjY1MjE3LC0zNTMuMTcyMzMgQyAtMjAuNDU4NzMsLTM1NC4wNTcwNCAtMTAuMjMxNzYsLTM1NC41IDAsLTM1NC41Ii8+JiN4YTsgICAgICAgIDwvZz4mI3hhOyAgICAgICAgPGcgdHJhbnNmb3JtPSJtYXRyaXgoLTAuODY2MDksMC40OTk4OSwtMC40OTk4OSwtMC44NjYwOSw0OTE2LjUsNjExMi41KSIgaWQ9ImcxODIiPiYjeGE7ICAgICAgICAgIDxwYXRoIGlkPSJwYXRoMTg0IiBzdHlsZT0iZmlsbDpub25lO3N0cm9rZTojMDAwMDAwO3N0cm9rZS13aWR0aDoxMjtzdHJva2UtbGluZWNhcDpyb3VuZDtzdHJva2UtbGluZWpvaW46cm91bmQ7c3Ryb2tlLW1pdGVybGltaXQ6MTA7c3Ryb2tlLWRhc2hhcnJheTpub25lO3N0cm9rZS1vcGFjaXR5OjEiIGQ9Ik0gLTMwLjY1MjE3LC0zNTMuMTcyMzMgQyAtMjAuNDU4NzMsLTM1NC4wNTcwNCAtMTAuMjMxNzYsLTM1NC41IDAsLTM1NC41Ii8+JiN4YTsgICAgICAgIDwvZz4mI3hhOyAgICAgICAgPGcgdHJhbnNmb3JtPSJtYXRyaXgoLTAuOTk2MjQsLTAuMDg2NjYsMC4wODY2NiwtMC45OTYyNCw0OTE2LjUsNjExMi41KSIgaWQ9ImcxODYiPiYjeGE7ICAgICAgICAgIDxwYXRoIGlkPSJwYXRoMTg4IiBzdHlsZT0iZmlsbDpub25lO3N0cm9rZTojMDAwMDAwO3N0cm9rZS13aWR0aDoxMjtzdHJva2UtbGluZWNhcDpyb3VuZDtzdHJva2UtbGluZWpvaW46cm91bmQ7c3Ryb2tlLW1pdGVybGltaXQ6MTA7c3Ryb2tlLWRhc2hhcnJheTpub25lO3N0cm9rZS1vcGFjaXR5OjEiIGQ9Ik0gLTM1My4xNzIzMywzMC42NTIxNyBDIC0zNTQuMDU3MDQsMjAuNDU4NzMgLTM1NC41LDEwLjIzMTc2IC0zNTQuNSwwIi8+JiN4YTsgICAgICAgIDwvZz4mI3hhOyAgICAgICAgPGcgdHJhbnNmb3JtPSJyb3RhdGUoMC4wMTA4ODYyLC0zMjE3MTA1Myw0Mjk0OTY3MzAwKSIgaWQ9ImcxOTAiPiYjeGE7ICAgICAgICAgIDxwYXRoIGlkPSJwYXRoMTkyIiBzdHlsZT0iZmlsbDpub25lO3N0cm9rZTojMDAwMDAwO3N0cm9rZS13aWR0aDoxMjtzdHJva2UtbGluZWNhcDpyb3VuZDtzdHJva2UtbGluZWpvaW46cm91bmQ7c3Ryb2tlLW1pdGVybGltaXQ6MTA7c3Ryb2tlLWRhc2hhcnJheTpub25lO3N0cm9rZS1vcGFjaXR5OjEiIGQ9Ik0gMzUzLjE3MjMzLC0zMC42NTIxNyBDIDM1NC4wNTcwNCwtMjAuNDU4NzMgMzU0LjUsLTEwLjIzMTc2IDM1NC41LDAiLz4mI3hhOyAgICAgICAgPC9nPiYjeGE7ICAgICAgICA8ZyB0cmFuc2Zvcm09Im1hdHJpeCgwLjgxOTQ2LDAuNTczMTQsLTAuNTczMTQsMC44MTk0Niw0OTE2LjUsNjExMi41KSIgaWQ9ImcxOTQiPiYjeGE7ICAgICAgICAgIDxwYXRoIGlkPSJwYXRoMTk2IiBzdHlsZT0iZmlsbDpub25lO3N0cm9rZTojMDAwMDAwO3N0cm9rZS13aWR0aDoxMjtzdHJva2UtbGluZWNhcDpyb3VuZDtzdHJva2UtbGluZWpvaW46cm91bmQ7c3Ryb2tlLW1pdGVybGltaXQ6MTA7c3Ryb2tlLWRhc2hhcnJheTpub25lO3N0cm9rZS1vcGFjaXR5OjEiIGQ9Ik0gLTMwLjY1MjE3LC0zNTMuMTcyMzMgQyAtMjAuNDU4NzMsLTM1NC4wNTcwNCAtMTAuMjMxNzYsLTM1NC41IDAsLTM1NC41Ii8+JiN4YTsgICAgICAgIDwvZz4mI3hhOyAgICAgICAgPHBhdGggaWQ9InBhdGgxOTgiIHN0eWxlPSJmaWxsOm5vbmU7c3Ryb2tlOiMwMDAwMDA7c3Ryb2tlLXdpZHRoOjEyO3N0cm9rZS1saW5lY2FwOnJvdW5kO3N0cm9rZS1saW5lam9pbjpyb3VuZDtzdHJva2UtbWl0ZXJsaW1pdDoxMDtzdHJva2UtZGFzaGFycmF5Om5vbmU7c3Ryb2tlLW9wYWNpdHk6MSIgZD0ibSA0OTE2LDY0MTkgaCAtMTc3IGwgLTg5LC0xNTQiLz4mI3hhOyAgICAgICAgPHBhdGggaWQ9InBhdGgyMDAiIHN0eWxlPSJmaWxsOm5vbmU7c3Ryb2tlOiMwMDAwMDA7c3Ryb2tlLXdpZHRoOjEyO3N0cm9rZS1saW5lY2FwOnJvdW5kO3N0cm9rZS1saW5lam9pbjpyb3VuZDtzdHJva2UtbWl0ZXJsaW1pdDoxMDtzdHJva2UtZGFzaGFycmF5Om5vbmU7c3Ryb2tlLW9wYWNpdHk6MSIgZD0ibSA1MTgyLDYyNjYgLTg5LDE1MyBoIC0xNzciLz4mI3hhOyAgICAgICAgPHBhdGggaWQ9InBhdGgyMDIiIHN0eWxlPSJmaWxsOm5vbmU7c3Ryb2tlOiMwMDAwMDA7c3Ryb2tlLXdpZHRoOjEyO3N0cm9rZS1saW5lY2FwOnJvdW5kO3N0cm9rZS1saW5lam9pbjpyb3VuZDtzdHJva2UtbWl0ZXJsaW1pdDoxMDtzdHJva2UtZGFzaGFycmF5Om5vbmU7c3Ryb2tlLW9wYWNpdHk6MSIgZD0ibSA1MTgyLDU5NTkgODgsMTUzIC04OCwxNTQiLz4mI3hhOyAgICAgICAgPHBhdGggaWQ9InBhdGgyMDQiIHN0eWxlPSJmaWxsOm5vbmU7c3Ryb2tlOiMwMDAwMDA7c3Ryb2tlLXdpZHRoOjEyO3N0cm9rZS1saW5lY2FwOnJvdW5kO3N0cm9rZS1saW5lam9pbjpyb3VuZDtzdHJva2UtbWl0ZXJsaW1pdDoxMDtzdHJva2UtZGFzaGFycmF5Om5vbmU7c3Ryb2tlLW9wYWNpdHk6MSIgZD0ibSA0OTE2LDU4MDUgaCAxNzcgbCA4OSwxNTQiLz4mI3hhOyAgICAgICAgPHBhdGggaWQ9InBhdGgyMDYiIHN0eWxlPSJmaWxsOm5vbmU7c3Ryb2tlOiMwMDAwMDA7c3Ryb2tlLXdpZHRoOjEyO3N0cm9rZS1saW5lY2FwOnJvdW5kO3N0cm9rZS1saW5lam9pbjpyb3VuZDtzdHJva2UtbWl0ZXJsaW1pdDoxMDtzdHJva2UtZGFzaGFycmF5Om5vbmU7c3Ryb2tlLW9wYWNpdHk6MSIgZD0ibSA0NjUwLDU5NTggODksLTE1MyBoIDE3NyIvPiYjeGE7ICAgICAgICA8cGF0aCBpZD0icGF0aDIwOCIgc3R5bGU9ImZpbGw6bm9uZTtzdHJva2U6IzAwMDAwMDtzdHJva2Utd2lkdGg6MTI7c3Ryb2tlLWxpbmVjYXA6cm91bmQ7c3Ryb2tlLWxpbmVqb2luOnJvdW5kO3N0cm9rZS1taXRlcmxpbWl0OjEwO3N0cm9rZS1kYXNoYXJyYXk6bm9uZTtzdHJva2Utb3BhY2l0eToxIiBkPSJtIDQ2NTAsNjI2NSAtODgsLTE1MyA4OCwtMTU0Ii8+JiN4YTsgICAgICA8L2c+JiN4YTsgICAgPC9nPiYjeGE7ICAgIDxnIGlkPSJnMjEwIj4mI3hhOyAgICAgIDxnIGNsaXAtcGF0aD0idXJsKCNjbGlwUGF0aDIxNikiIGlkPSJnMjEyIj4mI3hhOyAgICAgICAgPHBhdGggaWQ9InBhdGgyMTgiIHN0eWxlPSJmaWxsOm5vbmU7c3Ryb2tlOiMwMDAwMDA7c3Ryb2tlLXdpZHRoOjEyO3N0cm9rZS1saW5lY2FwOnJvdW5kO3N0cm9rZS1saW5lam9pbjpyb3VuZDtzdHJva2UtbWl0ZXJsaW1pdDoxMDtzdHJva2UtZGFzaGFycmF5Om5vbmU7c3Ryb2tlLW9wYWNpdHk6MSIgZD0ibSAxNjIwLDEwNzA3IHYgMTc0MiIvPiYjeGE7ICAgICAgICA8cGF0aCBpZD0icGF0aDIyMCIgc3R5bGU9ImZpbGw6bm9uZTtzdHJva2U6IzAwMDAwMDtzdHJva2Utd2lkdGg6MTI7c3Ryb2tlLWxpbmVjYXA6cm91bmQ7c3Ryb2tlLWxpbmVqb2luOnJvdW5kO3N0cm9rZS1taXRlcmxpbWl0OjEwO3N0cm9rZS1kYXNoYXJyYXk6bm9uZTtzdHJva2Utb3BhY2l0eToxIiBkPSJtIDgyODEsMTA3MDcgdiAxNzQyIi8+JiN4YTsgICAgICAgIDxwYXRoIGlkPSJwYXRoMjIyIiBzdHlsZT0iZmlsbDpub25lO3N0cm9rZTojMDAwMDAwO3N0cm9rZS13aWR0aDoxMjtzdHJva2UtbGluZWNhcDpyb3VuZDtzdHJva2UtbGluZWpvaW46cm91bmQ7c3Ryb2tlLW1pdGVybGltaXQ6MTA7c3Ryb2tlLWRhc2hhcnJheTpub25lO3N0cm9rZS1vcGFjaXR5OjEiIGQ9Ik0gMTc4NSwxMjM1MCBIIDgxMTYiLz4mI3hhOyAgICAgICAgPGcgaWQ9ImcyMjQiPiYjeGE7ICAgICAgICAgIDxwYXRoIGlkPSJwYXRoMjI2IiBzdHlsZT0iZmlsbDojMDAwMDAwO2ZpbGwtb3BhY2l0eToxO2ZpbGwtcnVsZTpub256ZXJvO3N0cm9rZTojMDAwMDAwO3N0cm9rZS13aWR0aDoxMi41O3N0cm9rZS1saW5lY2FwOnJvdW5kO3N0cm9rZS1saW5lam9pbjptaXRlcjtzdHJva2UtbWl0ZXJsaW1pdDoxMDtzdHJva2UtZGFzaGFycmF5Om5vbmU7c3Ryb2tlLW9wYWNpdHk6MSIgZD0ibSAxNzg1LDEyMzc3IHYgLTU1IGwgLTE2NSwyOCB6Ii8+JiN4YTsgICAgICAgIDwvZz4mI3hhOyAgICAgICAgPGcgaWQ9ImcyMjgiPiYjeGE7ICAgICAgICAgIDxwYXRoIGlkPSJwYXRoMjMwIiBzdHlsZT0iZmlsbDojMDAwMDAwO2ZpbGwtb3BhY2l0eToxO2ZpbGwtcnVsZTpub256ZXJvO3N0cm9rZTojMDAwMDAwO3N0cm9rZS13aWR0aDoxMi41O3N0cm9rZS1saW5lY2FwOnJvdW5kO3N0cm9rZS1saW5lam9pbjptaXRlcjtzdHJva2UtbWl0ZXJsaW1pdDoxMDtzdHJva2UtZGFzaGFycmF5Om5vbmU7c3Ryb2tlLW9wYWNpdHk6MSIgZD0ibSA4MTE2LDEyMzc3IHYgLTU1IGwgMTY1LDI4IHoiLz4mI3hhOyAgICAgICAgPC9nPiYjeGE7ICAgICAgPC9nPiYjeGE7ICAgIDwvZz4mI3hhOyAgICA8ZyBpZD0iZzIzMiI+JiN4YTsgICAgICA8ZyBjbGlwLXBhdGg9InVybCgjY2xpcFBhdGgyMzgpIiBpZD0iZzIzNCI+JiN4YTsgICAgICAgIDx0ZXh0IGlkPSJ0ZXh0MjQyIiBzdHlsZT0iZm9udC12YXJpYW50Om5vcm1hbDtmb250LXdlaWdodDpub3JtYWw7Zm9udC1zaXplOjIyNy40MjNweDtmb250LWZhbWlseTpWZXJkYW5hOy1pbmtzY2FwZS1mb250LXNwZWNpZmljYXRpb246VmVyZGFuYTt3cml0aW5nLW1vZGU6bHItdGI7ZmlsbDojMDAwMDAwO2ZpbGwtb3BhY2l0eToxO2ZpbGwtcnVsZTpub256ZXJvO3N0cm9rZTpub25lIiB0cmFuc2Zvcm09Im1hdHJpeCgxLDAsMCwtMSw0NzMwLDEyNDE2KSIgeG1sOnNwYWNlPSJwcmVzZXJ2ZSI+PHRzcGFuIGlkPSJ0c3BhbjI0MCIgeT0iMCIgeD0iMCAxNDQuNjQxMDIgMjg5LjI4MjA0Ij4xNDE8L3RzcGFuPjwvdGV4dD4mI3hhOyAgICAgIDwvZz4mI3hhOyAgICA8L2c+JiN4YTsgICAgPGcgaWQ9ImcyNDQiPiYjeGE7ICAgICAgPGcgY2xpcC1wYXRoPSJ1cmwoI2NsaXBQYXRoMjUwKSIgaWQ9ImcyNDYiPiYjeGE7ICAgICAgICA8cGF0aCBpZD0icGF0aDI1MiIgc3R5bGU9ImZpbGw6bm9uZTtzdHJva2U6IzAwMDAwMDtzdHJva2Utd2lkdGg6MTI7c3Ryb2tlLWxpbmVjYXA6cm91bmQ7c3Ryb2tlLWxpbmVqb2luOnJvdW5kO3N0cm9rZS1taXRlcmxpbWl0OjEwO3N0cm9rZS1kYXNoYXJyYXk6bm9uZTtzdHJva2Utb3BhY2l0eToxIiBkPSJNIDE1NDksMTA2MzYgSCAxMTIyIi8+JiN4YTsgICAgICAgIDxwYXRoIGlkPSJwYXRoMjU0IiBzdHlsZT0iZmlsbDpub25lO3N0cm9rZTojMDAwMDAwO3N0cm9rZS13aWR0aDoxMjtzdHJva2UtbGluZWNhcDpyb3VuZDtzdHJva2UtbGluZWpvaW46cm91bmQ7c3Ryb2tlLW1pdGVybGltaXQ6MTA7c3Ryb2tlLWRhc2hhcnJheTpub25lO3N0cm9rZS1vcGFjaXR5OjEiIGQ9Ik0gMTU0OSwxMDAyMyBIIDExMjIiLz4mI3hhOyAgICAgICAgPHBhdGggaWQ9InBhdGgyNTYiIHN0eWxlPSJmaWxsOm5vbmU7c3Ryb2tlOiMwMDAwMDA7c3Ryb2tlLXdpZHRoOjEyO3N0cm9rZS1saW5lY2FwOnJvdW5kO3N0cm9rZS1saW5lam9pbjpyb3VuZDtzdHJva2UtbWl0ZXJsaW1pdDoxMDtzdHJva2UtZGFzaGFycmF5Om5vbmU7c3Ryb2tlLW9wYWNpdHk6MSIgZD0ibSAxMjIxLDEwNDcxIHYgLTI4MyIvPiYjeGE7ICAgICAgICA8ZyBpZD0iZzI1OCI+JiN4YTsgICAgICAgICAgPHBhdGggaWQ9InBhdGgyNjAiIHN0eWxlPSJmaWxsOiMwMDAwMDA7ZmlsbC1vcGFjaXR5OjE7ZmlsbC1ydWxlOm5vbnplcm87c3Ryb2tlOiMwMDAwMDA7c3Ryb2tlLXdpZHRoOjEyLjU7c3Ryb2tlLWxpbmVjYXA6cm91bmQ7c3Ryb2tlLWxpbmVqb2luOm1pdGVyO3N0cm9rZS1taXRlcmxpbWl0OjEwO3N0cm9rZS1kYXNoYXJyYXk6bm9uZTtzdHJva2Utb3BhY2l0eToxIiBkPSJtIDExOTQsMTA0NzEgaCA1NSBsIC0yOCwxNjUgeiIvPiYjeGE7ICAgICAgICA8L2c+JiN4YTsgICAgICAgIDxnIGlkPSJnMjYyIj4mI3hhOyAgICAgICAgICA8cGF0aCBpZD0icGF0aDI2NCIgc3R5bGU9ImZpbGw6IzAwMDAwMDtmaWxsLW9wYWNpdHk6MTtmaWxsLXJ1bGU6bm9uemVybztzdHJva2U6IzAwMDAwMDtzdHJva2Utd2lkdGg6MTIuNTtzdHJva2UtbGluZWNhcDpyb3VuZDtzdHJva2UtbGluZWpvaW46bWl0ZXI7c3Ryb2tlLW1pdGVybGltaXQ6MTA7c3Ryb2tlLWRhc2hhcnJheTpub25lO3N0cm9rZS1vcGFjaXR5OjEiIGQ9Im0gMTE5NCwxMDE4OCBoIDU1IGwgLTI4LC0xNjUgeiIvPiYjeGE7ICAgICAgICA8L2c+JiN4YTsgICAgICAgIDx0ZXh0IGlkPSJ0ZXh0MjY4IiBzdHlsZT0iZm9udC12YXJpYW50Om5vcm1hbDtmb250LXdlaWdodDpub3JtYWw7Zm9udC1zaXplOjIyNy40MjNweDtmb250LWZhbWlseTpWZXJkYW5hOy1pbmtzY2FwZS1mb250LXNwZWNpZmljYXRpb246VmVyZGFuYTt3cml0aW5nLW1vZGU6bHItdGI7ZmlsbDojMDAwMDAwO2ZpbGwtb3BhY2l0eToxO2ZpbGwtcnVsZTpub256ZXJvO3N0cm9rZTpub25lIiB0cmFuc2Zvcm09Im1hdHJpeCgwLDEsMSwwLDExNTIsMTAxNzgpIiB4bWw6c3BhY2U9InByZXNlcnZlIj48dHNwYW4gaWQ9InRzcGFuMjY2IiB5PSIwIiB4PSIwIDE0NC42NDEwMiI+MTM8L3RzcGFuPjwvdGV4dD4mI3hhOyAgICAgICAgPHBhdGggaWQ9InBhdGgyNzAiIHN0eWxlPSJmaWxsOm5vbmU7c3Ryb2tlOiMwMDAwMDA7c3Ryb2tlLXdpZHRoOjEyO3N0cm9rZS1saW5lY2FwOnJvdW5kO3N0cm9rZS1saW5lam9pbjpyb3VuZDtzdHJva2UtbWl0ZXJsaW1pdDoxMDtzdHJva2UtZGFzaGFycmF5Om5vbmU7c3Ryb2tlLW9wYWNpdHk6MSIgZD0ibSAyNTQxLDk3NjUgdiAxMSIvPiYjeGE7ICAgICAgICA8cGF0aCBpZD0icGF0aDI3MiIgc3R5bGU9ImZpbGw6bm9uZTtzdHJva2U6IzAwMDAwMDtzdHJva2Utd2lkdGg6MTI7c3Ryb2tlLWxpbmVjYXA6cm91bmQ7c3Ryb2tlLWxpbmVqb2luOnJvdW5kO3N0cm9rZS1taXRlcmxpbWl0OjEwO3N0cm9rZS1kYXNoYXJyYXk6bm9uZTtzdHJva2Utb3BhY2l0eToxIiBkPSJNIDE2MjAsOTk1MiBWIDk1NzgiLz4mI3hhOyAgICAgICAgPHBhdGggaWQ9InBhdGgyNzQiIHN0eWxlPSJmaWxsOm5vbmU7c3Ryb2tlOiMwMDAwMDA7c3Ryb2tlLXdpZHRoOjEyO3N0cm9rZS1saW5lY2FwOnJvdW5kO3N0cm9rZS1saW5lam9pbjpyb3VuZDtzdHJva2UtbWl0ZXJsaW1pdDoxMDtzdHJva2UtZGFzaGFycmF5Om5vbmU7c3Ryb2tlLW9wYWNpdHk6MSIgZD0iTSAyMzc2LDk2NzcgSCAxNzg1Ii8+JiN4YTsgICAgICAgIDxnIGlkPSJnMjc2Ij4mI3hhOyAgICAgICAgICA8cGF0aCBpZD0icGF0aDI3OCIgc3R5bGU9ImZpbGw6IzAwMDAwMDtmaWxsLW9wYWNpdHk6MTtmaWxsLXJ1bGU6bm9uemVybztzdHJva2U6IzAwMDAwMDtzdHJva2Utd2lkdGg6MTIuNTtzdHJva2UtbGluZWNhcDpyb3VuZDtzdHJva2UtbGluZWpvaW46bWl0ZXI7c3Ryb2tlLW1pdGVybGltaXQ6MTA7c3Ryb2tlLWRhc2hhcnJheTpub25lO3N0cm9rZS1vcGFjaXR5OjEiIGQ9Im0gMjM3Niw5NzA0IHYgLTU1IGwgMTY1LDI4IHoiLz4mI3hhOyAgICAgICAgPC9nPiYjeGE7ICAgICAgICA8ZyBpZD0iZzI4MCI+JiN4YTsgICAgICAgICAgPHBhdGggaWQ9InBhdGgyODIiIHN0eWxlPSJmaWxsOiMwMDAwMDA7ZmlsbC1vcGFjaXR5OjE7ZmlsbC1ydWxlOm5vbnplcm87c3Ryb2tlOiMwMDAwMDA7c3Ryb2tlLXdpZHRoOjEyLjU7c3Ryb2tlLWxpbmVjYXA6cm91bmQ7c3Ryb2tlLWxpbmVqb2luOm1pdGVyO3N0cm9rZS1taXRlcmxpbWl0OjEwO3N0cm9rZS1kYXNoYXJyYXk6bm9uZTtzdHJva2Utb3BhY2l0eToxIiBkPSJtIDE3ODUsOTcwNCB2IC01NSBsIC0xNjUsMjggeiIvPiYjeGE7ICAgICAgICA8L2c+JiN4YTsgICAgICAgIDx0ZXh0IGlkPSJ0ZXh0Mjg2IiBzdHlsZT0iZm9udC12YXJpYW50Om5vcm1hbDtmb250LXdlaWdodDpub3JtYWw7Zm9udC1zaXplOjIyNy40MjNweDtmb250LWZhbWlseTpWZXJkYW5hOy1pbmtzY2FwZS1mb250LXNwZWNpZmljYXRpb246VmVyZGFuYTt3cml0aW5nLW1vZGU6bHItdGI7ZmlsbDojMDAwMDAwO2ZpbGwtb3BhY2l0eToxO2ZpbGwtcnVsZTpub256ZXJvO3N0cm9rZTpub25lIiB0cmFuc2Zvcm09Im1hdHJpeCgxLDAsMCwtMSwxODE1LDk3NDYpIiB4bWw6c3BhY2U9InByZXNlcnZlIj48dHNwYW4gaWQ9InRzcGFuMjg0IiB5PSIwIiB4PSIwIDE0NC42NDEwMiAyODkuMjgyMDQgMzcyLjA2NDAzIj4xOS41PC90c3Bhbj48L3RleHQ+JiN4YTsgICAgICAgIDxwYXRoIGlkPSJwYXRoMjg4IiBzdHlsZT0iZmlsbDpub25lO3N0cm9rZTojMDAwMDAwO3N0cm9rZS13aWR0aDoxMjtzdHJva2UtbGluZWNhcDpyb3VuZDtzdHJva2UtbGluZWpvaW46cm91bmQ7c3Ryb2tlLW1pdGVybGltaXQ6MTA7c3Ryb2tlLWRhc2hhcnJheTpub25lO3N0cm9rZS1vcGFjaXR5OjEiIGQ9Im0gMzI1MCw5NjE4IHYgLTQwIi8+JiN4YTsgICAgICAgIDxwYXRoIGlkPSJwYXRoMjkwIiBzdHlsZT0iZmlsbDpub25lO3N0cm9rZTojMDAwMDAwO3N0cm9rZS13aWR0aDoxMjtzdHJva2UtbGluZWNhcDpyb3VuZDtzdHJva2UtbGluZWpvaW46cm91bmQ7c3Ryb2tlLW1pdGVybGltaXQ6MTA7c3Ryb2tlLWRhc2hhcnJheTpub25lO3N0cm9rZS1vcGFjaXR5OjEiIGQ9Im0gNjY1MSw5NjE4IHYgLTQwIi8+JiN4YTsgICAgICAgIDxwYXRoIGlkPSJwYXRoMjkyIiBzdHlsZT0iZmlsbDpub25lO3N0cm9rZTojMDAwMDAwO3N0cm9rZS13aWR0aDoxMjtzdHJva2UtbGluZWNhcDpyb3VuZDtzdHJva2UtbGluZWpvaW46cm91bmQ7c3Ryb2tlLW1pdGVybGltaXQ6MTA7c3Ryb2tlLWRhc2hhcnJheTpub25lO3N0cm9rZS1vcGFjaXR5OjEiIGQ9Ik0gMzQxNSw5Njc3IEggNjQ4NiIvPiYjeGE7ICAgICAgICA8ZyBpZD0iZzI5NCI+JiN4YTsgICAgICAgICAgPHBhdGggaWQ9InBhdGgyOTYiIHN0eWxlPSJmaWxsOiMwMDAwMDA7ZmlsbC1vcGFjaXR5OjE7ZmlsbC1ydWxlOm5vbnplcm87c3Ryb2tlOiMwMDAwMDA7c3Ryb2tlLXdpZHRoOjEyLjU7c3Ryb2tlLWxpbmVjYXA6cm91bmQ7c3Ryb2tlLWxpbmVqb2luOm1pdGVyO3N0cm9rZS1taXRlcmxpbWl0OjEwO3N0cm9rZS1kYXNoYXJyYXk6bm9uZTtzdHJva2Utb3BhY2l0eToxIiBkPSJtIDM0MTUsOTcwNCB2IC01NSBsIC0xNjUsMjggeiIvPiYjeGE7ICAgICAgICA8L2c+JiN4YTsgICAgICAgIDxnIGlkPSJnMjk4Ij4mI3hhOyAgICAgICAgICA8cGF0aCBpZD0icGF0aDMwMCIgc3R5bGU9ImZpbGw6IzAwMDAwMDtmaWxsLW9wYWNpdHk6MTtmaWxsLXJ1bGU6bm9uemVybztzdHJva2U6IzAwMDAwMDtzdHJva2Utd2lkdGg6MTIuNTtzdHJva2UtbGluZWNhcDpyb3VuZDtzdHJva2UtbGluZWpvaW46bWl0ZXI7c3Ryb2tlLW1pdGVybGltaXQ6MTA7c3Ryb2tlLWRhc2hhcnJheTpub25lO3N0cm9rZS1vcGFjaXR5OjEiIGQ9Im0gNjQ4Niw5NzA0IHYgLTU1IGwgMTY1LDI4IHoiLz4mI3hhOyAgICAgICAgPC9nPiYjeGE7ICAgICAgICA8dGV4dCBpZD0idGV4dDMwNCIgc3R5bGU9ImZvbnQtdmFyaWFudDpub3JtYWw7Zm9udC13ZWlnaHQ6bm9ybWFsO2ZvbnQtc2l6ZToyMjcuNDIzcHg7Zm9udC1mYW1pbHk6VmVyZGFuYTstaW5rc2NhcGUtZm9udC1zcGVjaWZpY2F0aW9uOlZlcmRhbmE7d3JpdGluZy1tb2RlOmxyLXRiO2ZpbGw6IzAwMDAwMDtmaWxsLW9wYWNpdHk6MTtmaWxsLXJ1bGU6bm9uemVybztzdHJva2U6bm9uZSIgdHJhbnNmb3JtPSJtYXRyaXgoMSwwLDAsLTEsNDgwNSw5NzQzKSIgeG1sOnNwYWNlPSJwcmVzZXJ2ZSI+PHRzcGFuIGlkPSJ0c3BhbjMwMiIgeT0iMCIgeD0iMCAxNDQuNjQxMDIiPjcyPC90c3Bhbj48L3RleHQ+JiN4YTsgICAgICAgIDxwYXRoIGlkPSJwYXRoMzA2IiBzdHlsZT0iZmlsbDpub25lO3N0cm9rZTojMDAwMDAwO3N0cm9rZS13aWR0aDoxMjtzdHJva2UtbGluZWNhcDpyb3VuZDtzdHJva2UtbGluZWpvaW46cm91bmQ7c3Ryb2tlLW1pdGVybGltaXQ6MTA7c3Ryb2tlLWRhc2hhcnJheTpub25lO3N0cm9rZS1vcGFjaXR5OjEiIGQ9Im0gMzI1MCwxMTk5NSB2IDQ1MyIvPiYjeGE7ICAgICAgICA8cGF0aCBpZD0icGF0aDMwOCIgc3R5bGU9ImZpbGw6bm9uZTtzdHJva2U6IzAwMDAwMDtzdHJva2Utd2lkdGg6MTI7c3Ryb2tlLWxpbmVjYXA6cm91bmQ7c3Ryb2tlLWxpbmVqb2luOnJvdW5kO3N0cm9rZS1taXRlcmxpbWl0OjEwO3N0cm9rZS1kYXNoYXJyYXk6bm9uZTtzdHJva2Utb3BhY2l0eToxIiBkPSJtIDI1NDEsMTE3MjUgdiA3MjMiLz4mI3hhOyAgICAgICAgPHBhdGggaWQ9InBhdGgzMTAiIHN0eWxlPSJmaWxsOm5vbmU7c3Ryb2tlOiMwMDAwMDA7c3Ryb2tlLXdpZHRoOjEyO3N0cm9rZS1saW5lY2FwOnJvdW5kO3N0cm9rZS1saW5lam9pbjpyb3VuZDtzdHJva2UtbWl0ZXJsaW1pdDoxMDtzdHJva2UtZGFzaGFycmF5Om5vbmU7c3Ryb2tlLW9wYWNpdHk6MSIgZD0iTSAzMDg1LDEyMzQ5IEggMjcwNyIvPiYjeGE7ICAgICAgICA8ZyBpZD0iZzMxMiI+JiN4YTsgICAgICAgICAgPHBhdGggaWQ9InBhdGgzMTQiIHN0eWxlPSJmaWxsOiMwMDAwMDA7ZmlsbC1vcGFjaXR5OjE7ZmlsbC1ydWxlOm5vbnplcm87c3Ryb2tlOiMwMDAwMDA7c3Ryb2tlLXdpZHRoOjEyLjU7c3Ryb2tlLWxpbmVjYXA6cm91bmQ7c3Ryb2tlLWxpbmVqb2luOm1pdGVyO3N0cm9rZS1taXRlcmxpbWl0OjEwO3N0cm9rZS1kYXNoYXJyYXk6bm9uZTtzdHJva2Utb3BhY2l0eToxIiBkPSJtIDMwODUsMTIzNzYgdiAtNTUgbCAxNjUsMjggeiIvPiYjeGE7ICAgICAgICA8L2c+JiN4YTsgICAgICAgIDxnIGlkPSJnMzE2Ij4mI3hhOyAgICAgICAgICA8cGF0aCBpZD0icGF0aDMxOCIgc3R5bGU9ImZpbGw6IzAwMDAwMDtmaWxsLW9wYWNpdHk6MTtmaWxsLXJ1bGU6bm9uemVybztzdHJva2U6IzAwMDAwMDtzdHJva2Utd2lkdGg6MTIuNTtzdHJva2UtbGluZWNhcDpyb3VuZDtzdHJva2UtbGluZWpvaW46bWl0ZXI7c3Ryb2tlLW1pdGVybGltaXQ6MTA7c3Ryb2tlLWRhc2hhcnJheTpub25lO3N0cm9rZS1vcGFjaXR5OjEiIGQ9Im0gMjcwNywxMjM3NiB2IC01NSBsIC0xNjYsMjggeiIvPiYjeGE7ICAgICAgICA8L2c+JiN4YTsgICAgICAgIDx0ZXh0IGlkPSJ0ZXh0MzIyIiBzdHlsZT0iZm9udC12YXJpYW50Om5vcm1hbDtmb250LXdlaWdodDpub3JtYWw7Zm9udC1zaXplOjIyNy40MjNweDtmb250LWZhbWlseTpWZXJkYW5hOy1pbmtzY2FwZS1mb250LXNwZWNpZmljYXRpb246VmVyZGFuYTt3cml0aW5nLW1vZGU6bHItdGI7ZmlsbDojMDAwMDAwO2ZpbGwtb3BhY2l0eToxO2ZpbGwtcnVsZTpub256ZXJvO3N0cm9rZTpub25lIiB0cmFuc2Zvcm09Im1hdHJpeCgxLDAsMCwtMSwyNzQ0LDEyNDE4KSIgeG1sOnNwYWNlPSJwcmVzZXJ2ZSI+PHRzcGFuIGlkPSJ0c3BhbjMyMCIgeT0iMCIgeD0iMCAxNDQuNjQxMDIiPjE1PC90c3Bhbj48L3RleHQ+JiN4YTsgICAgICAgIDxwYXRoIGlkPSJwYXRoMzI0IiBzdHlsZT0iZmlsbDpub25lO3N0cm9rZTojMDAwMDAwO3N0cm9rZS13aWR0aDoxMjtzdHJva2UtbGluZWNhcDpyb3VuZDtzdHJva2UtbGluZWpvaW46cm91bmQ7c3Ryb2tlLW1pdGVybGltaXQ6MTA7c3Ryb2tlLWRhc2hhcnJheTpub25lO3N0cm9rZS1vcGFjaXR5OjEiIGQ9Ik0gMzEwOCw4NjY0IFYgODI3NiIvPiYjeGE7ICAgICAgICA8cGF0aCBpZD0icGF0aDMyNiIgc3R5bGU9ImZpbGw6bm9uZTtzdHJva2U6IzAwMDAwMDtzdHJva2Utd2lkdGg6MTI7c3Ryb2tlLWxpbmVjYXA6cm91bmQ7c3Ryb2tlLWxpbmVqb2luOnJvdW5kO3N0cm9rZS1taXRlcmxpbWl0OjEwO3N0cm9rZS1kYXNoYXJyYXk6bm9uZTtzdHJva2Utb3BhY2l0eToxIiBkPSJNIDMyNTAsODY2NCBWIDgyNzYiLz4mI3hhOyAgICAgICAgPHBhdGggaWQ9InBhdGgzMjgiIHN0eWxlPSJmaWxsOm5vbmU7c3Ryb2tlOiMwMDAwMDA7c3Ryb2tlLXdpZHRoOjEyO3N0cm9rZS1saW5lY2FwOnJvdW5kO3N0cm9rZS1saW5lam9pbjpyb3VuZDtzdHJva2UtbWl0ZXJsaW1pdDoxMDtzdHJva2UtZGFzaGFycmF5Om5vbmU7c3Ryb2tlLW9wYWNpdHk6MSIgZD0iTSAyOTQzLDgzNzUgSCAyNzc4Ii8+JiN4YTsgICAgICAgIDxwYXRoIGlkPSJwYXRoMzMwIiBzdHlsZT0iZmlsbDpub25lO3N0cm9rZTojMDAwMDAwO3N0cm9rZS13aWR0aDoxMjtzdHJva2UtbGluZWNhcDpyb3VuZDtzdHJva2UtbGluZWpvaW46cm91bmQ7c3Ryb2tlLW1pdGVybGltaXQ6MTA7c3Ryb2tlLWRhc2hhcnJheTpub25lO3N0cm9rZS1vcGFjaXR5OjEiIGQ9Im0gMzQxNSw4Mzc1IGggNDA3Ii8+JiN4YTsgICAgICAgIDxwYXRoIGlkPSJwYXRoMzMyIiBzdHlsZT0iZmlsbDpub25lO3N0cm9rZTojMDAwMDAwO3N0cm9rZS13aWR0aDoxMjtzdHJva2UtbGluZWNhcDpyb3VuZDtzdHJva2UtbGluZWpvaW46cm91bmQ7c3Ryb2tlLW1pdGVybGltaXQ6MTA7c3Ryb2tlLWRhc2hhcnJheTpub25lO3N0cm9rZS1vcGFjaXR5OjEiIGQ9Im0gMzEwOCw4Mzc1IGggMTQyIi8+JiN4YTsgICAgICAgIDxnIGlkPSJnMzM0Ij4mI3hhOyAgICAgICAgICA8cGF0aCBpZD0icGF0aDMzNiIgc3R5bGU9ImZpbGw6IzAwMDAwMDtmaWxsLW9wYWNpdHk6MTtmaWxsLXJ1bGU6bm9uemVybztzdHJva2U6IzAwMDAwMDtzdHJva2Utd2lkdGg6MTIuNTtzdHJva2UtbGluZWNhcDpyb3VuZDtzdHJva2UtbGluZWpvaW46bWl0ZXI7c3Ryb2tlLW1pdGVybGltaXQ6MTA7c3Ryb2tlLWRhc2hhcnJheTpub25lO3N0cm9rZS1vcGFjaXR5OjEiIGQ9Im0gMjk0Myw4NDAzIHYgLTU1IGwgMTY1LDI3IHoiLz4mI3hhOyAgICAgICAgPC9nPiYjeGE7ICAgICAgICA8ZyBpZD0iZzMzOCI+JiN4YTsgICAgICAgICAgPHBhdGggaWQ9InBhdGgzNDAiIHN0eWxlPSJmaWxsOiMwMDAwMDA7ZmlsbC1vcGFjaXR5OjE7ZmlsbC1ydWxlOm5vbnplcm87c3Ryb2tlOiMwMDAwMDA7c3Ryb2tlLXdpZHRoOjEyLjU7c3Ryb2tlLWxpbmVjYXA6cm91bmQ7c3Ryb2tlLWxpbmVqb2luOm1pdGVyO3N0cm9rZS1taXRlcmxpbWl0OjEwO3N0cm9rZS1kYXNoYXJyYXk6bm9uZTtzdHJva2Utb3BhY2l0eToxIiBkPSJtIDM0MTUsODQwMyB2IC01NSBsIC0xNjUsMjcgeiIvPiYjeGE7ICAgICAgICA8L2c+JiN4YTsgICAgICAgIDx0ZXh0IGlkPSJ0ZXh0MzQ0IiBzdHlsZT0iZm9udC12YXJpYW50Om5vcm1hbDtmb250LXdlaWdodDpub3JtYWw7Zm9udC1zaXplOjIyNy40MjNweDtmb250LWZhbWlseTpWZXJkYW5hOy1pbmtzY2FwZS1mb250LXNwZWNpZmljYXRpb246VmVyZGFuYTt3cml0aW5nLW1vZGU6bHItdGI7ZmlsbDojMDAwMDAwO2ZpbGwtb3BhY2l0eToxO2ZpbGwtcnVsZTpub256ZXJvO3N0cm9rZTpub25lIiB0cmFuc2Zvcm09Im1hdHJpeCgxLDAsMCwtMSwzNjI4LDg0NDUpIiB4bWw6c3BhY2U9InByZXNlcnZlIj48dHNwYW4gaWQ9InRzcGFuMzQyIiB5PSIwIiB4PSIwIj4zPC90c3Bhbj48L3RleHQ+JiN4YTsgICAgICAgIDxwYXRoIGlkPSJwYXRoMzQ2IiBzdHlsZT0iZmlsbDpub25lO3N0cm9rZTojMDAwMDAwO3N0cm9rZS13aWR0aDoxMjtzdHJva2UtbGluZWNhcDpyb3VuZDtzdHJva2UtbGluZWpvaW46cm91bmQ7c3Ryb2tlLW1pdGVybGltaXQ6MTA7c3Ryb2tlLWRhc2hhcnJheTpub25lO3N0cm9rZS1vcGFjaXR5OjEiIGQ9Ik0gNjU4MSwxMTkyNCBIIDYxMDciLz4mI3hhOyAgICAgICAgPHBhdGggaWQ9InBhdGgzNDgiIHN0eWxlPSJmaWxsOm5vbmU7c3Ryb2tlOiMwMDAwMDA7c3Ryb2tlLXdpZHRoOjEyO3N0cm9rZS1saW5lY2FwOnJvdW5kO3N0cm9rZS1saW5lam9pbjpyb3VuZDtzdHJva2UtbWl0ZXJsaW1pdDoxMDtzdHJva2UtZGFzaGFycmF5Om5vbmU7c3Ryb2tlLW9wYWNpdHk6MSIgZD0iTSA2NTgxLDg3MzUgSCA2MTA3Ii8+JiN4YTsgICAgICAgIDxwYXRoIGlkPSJwYXRoMzUwIiBzdHlsZT0iZmlsbDpub25lO3N0cm9rZTojMDAwMDAwO3N0cm9rZS13aWR0aDoxMjtzdHJva2UtbGluZWNhcDpyb3VuZDtzdHJva2UtbGluZWpvaW46cm91bmQ7c3Ryb2tlLW1pdGVybGltaXQ6MTA7c3Ryb2tlLWRhc2hhcnJheTpub25lO3N0cm9rZS1vcGFjaXR5OjEiIGQ9Ik0gNjIwNiwxMTc1OSBWIDg5MDEiLz4mI3hhOyAgICAgICAgPGcgaWQ9ImczNTIiPiYjeGE7ICAgICAgICAgIDxwYXRoIGlkPSJwYXRoMzU0IiBzdHlsZT0iZmlsbDojMDAwMDAwO2ZpbGwtb3BhY2l0eToxO2ZpbGwtcnVsZTpub256ZXJvO3N0cm9rZTojMDAwMDAwO3N0cm9rZS13aWR0aDoxMi41O3N0cm9rZS1saW5lY2FwOnJvdW5kO3N0cm9rZS1saW5lam9pbjptaXRlcjtzdHJva2UtbWl0ZXJsaW1pdDoxMDtzdHJva2UtZGFzaGFycmF5Om5vbmU7c3Ryb2tlLW9wYWNpdHk6MSIgZD0ibSA2MTc5LDExNzU5IGggNTUgbCAtMjgsMTY1IHoiLz4mI3hhOyAgICAgICAgPC9nPiYjeGE7ICAgICAgICA8ZyBpZD0iZzM1NiI+JiN4YTsgICAgICAgICAgPHBhdGggaWQ9InBhdGgzNTgiIHN0eWxlPSJmaWxsOiMwMDAwMDA7ZmlsbC1vcGFjaXR5OjE7ZmlsbC1ydWxlOm5vbnplcm87c3Ryb2tlOiMwMDAwMDA7c3Ryb2tlLXdpZHRoOjEyLjU7c3Ryb2tlLWxpbmVjYXA6cm91bmQ7c3Ryb2tlLWxpbmVqb2luOm1pdGVyO3N0cm9rZS1taXRlcmxpbWl0OjEwO3N0cm9rZS1kYXNoYXJyYXk6bm9uZTtzdHJva2Utb3BhY2l0eToxIiBkPSJtIDYxNzksODkwMSBoIDU1IGwgLTI4LC0xNjYgeiIvPiYjeGE7ICAgICAgICA8L2c+JiN4YTsgICAgICAgIDx0ZXh0IGlkPSJ0ZXh0MzYyIiBzdHlsZT0iZm9udC12YXJpYW50Om5vcm1hbDtmb250LXdlaWdodDpub3JtYWw7Zm9udC1zaXplOjIyNy40MjNweDtmb250LWZhbWlseTpWZXJkYW5hOy1pbmtzY2FwZS1mb250LXNwZWNpZmljYXRpb246VmVyZGFuYTt3cml0aW5nLW1vZGU6bHItdGI7ZmlsbDojMDAwMDAwO2ZpbGwtb3BhY2l0eToxO2ZpbGwtcnVsZTpub256ZXJvO3N0cm9rZTpub25lIiB0cmFuc2Zvcm09Im1hdHJpeCgwLDEsMSwwLDYxMzcsMTAwNzIpIiB4bWw6c3BhY2U9InByZXNlcnZlIj48dHNwYW4gaWQ9InRzcGFuMzYwIiB5PSIwIiB4PSIwIDE0NC42NDEwMiAyODkuMjgyMDQgMzcyLjA2NDAzIj42Ny41PC90c3Bhbj48L3RleHQ+JiN4YTsgICAgICAgIDxwYXRoIGlkPSJwYXRoMzY0IiBzdHlsZT0iZmlsbDpub25lO3N0cm9rZTojMDAwMDAwO3N0cm9rZS13aWR0aDoxMjtzdHJva2UtbGluZWNhcDpyb3VuZDtzdHJva2UtbGluZWpvaW46cm91bmQ7c3Ryb2tlLW1pdGVybGltaXQ6MTA7c3Ryb2tlLWRhc2hhcnJheTpub25lO3N0cm9rZS1vcGFjaXR5OjEiIGQ9Im0gNzQxMCwxMTY4MiBoIDM3OCIvPiYjeGE7ICAgICAgICA8cGF0aCBpZD0icGF0aDM2NiIgc3R5bGU9ImZpbGw6bm9uZTtzdHJva2U6IzAwMDAwMDtzdHJva2Utd2lkdGg6MTI7c3Ryb2tlLWxpbmVjYXA6cm91bmQ7c3Ryb2tlLWxpbmVqb2luOnJvdW5kO3N0cm9rZS1taXRlcmxpbWl0OjEwO3N0cm9rZS1kYXNoYXJyYXk6bm9uZTtzdHJva2Utb3BhY2l0eToxIiBkPSJtIDc0MTAsODk3NyBoIDM3OCIvPiYjeGE7ICAgICAgICA8cGF0aCBpZD0icGF0aDM2OCIgc3R5bGU9ImZpbGw6bm9uZTtzdHJva2U6IzAwMDAwMDtzdHJva2Utd2lkdGg6MTI7c3Ryb2tlLWxpbmVjYXA6cm91bmQ7c3Ryb2tlLWxpbmVqb2luOnJvdW5kO3N0cm9rZS1taXRlcmxpbWl0OjEwO3N0cm9rZS1kYXNoYXJyYXk6bm9uZTtzdHJva2Utb3BhY2l0eToxIiBkPSJNIDc2ODgsMTE1MTcgViA5MTQyIi8+JiN4YTsgICAgICAgIDxnIGlkPSJnMzcwIj4mI3hhOyAgICAgICAgICA8cGF0aCBpZD0icGF0aDM3MiIgc3R5bGU9ImZpbGw6IzAwMDAwMDtmaWxsLW9wYWNpdHk6MTtmaWxsLXJ1bGU6bm9uemVybztzdHJva2U6IzAwMDAwMDtzdHJva2Utd2lkdGg6MTIuNTtzdHJva2UtbGluZWNhcDpyb3VuZDtzdHJva2UtbGluZWpvaW46bWl0ZXI7c3Ryb2tlLW1pdGVybGltaXQ6MTA7c3Ryb2tlLWRhc2hhcnJheTpub25lO3N0cm9rZS1vcGFjaXR5OjEiIGQ9Im0gNzY2MSwxMTUxNyBoIDU1IGwgLTI4LDE2NSB6Ii8+JiN4YTsgICAgICAgIDwvZz4mI3hhOyAgICAgICAgPGcgaWQ9ImczNzQiPiYjeGE7ICAgICAgICAgIDxwYXRoIGlkPSJwYXRoMzc2IiBzdHlsZT0iZmlsbDojMDAwMDAwO2ZpbGwtb3BhY2l0eToxO2ZpbGwtcnVsZTpub256ZXJvO3N0cm9rZTojMDAwMDAwO3N0cm9rZS13aWR0aDoxMi41O3N0cm9rZS1saW5lY2FwOnJvdW5kO3N0cm9rZS1saW5lam9pbjptaXRlcjtzdHJva2UtbWl0ZXJsaW1pdDoxMDtzdHJva2UtZGFzaGFycmF5Om5vbmU7c3Ryb2tlLW9wYWNpdHk6MSIgZD0ibSA3NjYxLDkxNDIgaCA1NSBsIC0yOCwtMTY1IHoiLz4mI3hhOyAgICAgICAgPC9nPiYjeGE7ICAgICAgICA8dGV4dCBpZD0idGV4dDM4MCIgc3R5bGU9ImZvbnQtdmFyaWFudDpub3JtYWw7Zm9udC13ZWlnaHQ6bm9ybWFsO2ZvbnQtc2l6ZToyMjcuNDIzcHg7Zm9udC1mYW1pbHk6VmVyZGFuYTstaW5rc2NhcGUtZm9udC1zcGVjaWZpY2F0aW9uOlZlcmRhbmE7d3JpdGluZy1tb2RlOmxyLXRiO2ZpbGw6IzAwMDAwMDtmaWxsLW9wYWNpdHk6MTtmaWxsLXJ1bGU6bm9uemVybztzdHJva2U6bm9uZSIgdHJhbnNmb3JtPSJtYXRyaXgoMCwxLDEsMCw3NjE5LDEwMTgyKSIgeG1sOnNwYWNlPSJwcmVzZXJ2ZSI+PHRzcGFuIGlkPSJ0c3BhbjM3OCIgeT0iMCIgeD0iMCAxNDQuNjQxMDIiPjU3PC90c3Bhbj48L3RleHQ+JiN4YTsgICAgICAgIDxwYXRoIGlkPSJwYXRoMzgyIiBzdHlsZT0iZmlsbDpub25lO3N0cm9rZTojMDAwMDAwO3N0cm9rZS13aWR0aDoxMjtzdHJva2UtbGluZWNhcDpyb3VuZDtzdHJva2UtbGluZWpvaW46cm91bmQ7c3Ryb2tlLW1pdGVybGltaXQ6MTA7c3Ryb2tlLWRhc2hhcnJheTpub25lO3N0cm9rZS1vcGFjaXR5OjEiIGQ9Im0gMzIwNywxMTc0NyBoIDQ4MiIvPiYjeGE7ICAgICAgICA8cGF0aCBpZD0icGF0aDM4NCIgc3R5bGU9ImZpbGw6bm9uZTtzdHJva2U6IzAwMDAwMDtzdHJva2Utd2lkdGg6MTI7c3Ryb2tlLWxpbmVjYXA6cm91bmQ7c3Ryb2tlLWxpbmVqb2luOnJvdW5kO3N0cm9rZS1taXRlcmxpbWl0OjEwO3N0cm9rZS1kYXNoYXJyYXk6bm9uZTtzdHJva2Utb3BhY2l0eToxIiBkPSJtIDMyMDcsODkxMiBoIDQ4MiIvPiYjeGE7ICAgICAgICA8cGF0aCBpZD0icGF0aDM4NiIgc3R5bGU9ImZpbGw6bm9uZTtzdHJva2U6IzAwMDAwMDtzdHJva2Utd2lkdGg6MTI7c3Ryb2tlLWxpbmVjYXA6cm91bmQ7c3Ryb2tlLWxpbmVqb2luOnJvdW5kO3N0cm9rZS1taXRlcmxpbWl0OjEwO3N0cm9rZS1kYXNoYXJyYXk6bm9uZTtzdHJva2Utb3BhY2l0eToxIiBkPSJNIDM1OTAsMTE1ODIgViA5MDc4Ii8+JiN4YTsgICAgICAgIDxnIGlkPSJnMzg4Ij4mI3hhOyAgICAgICAgICA8cGF0aCBpZD0icGF0aDM5MCIgc3R5bGU9ImZpbGw6IzAwMDAwMDtmaWxsLW9wYWNpdHk6MTtmaWxsLXJ1bGU6bm9uemVybztzdHJva2U6IzAwMDAwMDtzdHJva2Utd2lkdGg6MTIuNTtzdHJva2UtbGluZWNhcDpyb3VuZDtzdHJva2UtbGluZWpvaW46bWl0ZXI7c3Ryb2tlLW1pdGVybGltaXQ6MTA7c3Ryb2tlLWRhc2hhcnJheTpub25lO3N0cm9rZS1vcGFjaXR5OjEiIGQ9Im0gMzU2MiwxMTU4MiBoIDU1IGwgLTI3LDE2NSB6Ii8+JiN4YTsgICAgICAgIDwvZz4mI3hhOyAgICAgICAgPGcgaWQ9ImczOTIiPiYjeGE7ICAgICAgICAgIDxwYXRoIGlkPSJwYXRoMzk0IiBzdHlsZT0iZmlsbDojMDAwMDAwO2ZpbGwtb3BhY2l0eToxO2ZpbGwtcnVsZTpub256ZXJvO3N0cm9rZTojMDAwMDAwO3N0cm9rZS13aWR0aDoxMi41O3N0cm9rZS1saW5lY2FwOnJvdW5kO3N0cm9rZS1saW5lam9pbjptaXRlcjtzdHJva2UtbWl0ZXJsaW1pdDoxMDtzdHJva2UtZGFzaGFycmF5Om5vbmU7c3Ryb2tlLW9wYWNpdHk6MSIgZD0ibSAzNTYyLDkwNzggaCA1NSBsIC0yNywtMTY2IHoiLz4mI3hhOyAgICAgICAgPC9nPiYjeGE7ICAgICAgICA8dGV4dCBpZD0idGV4dDM5OCIgc3R5bGU9ImZvbnQtdmFyaWFudDpub3JtYWw7Zm9udC13ZWlnaHQ6bm9ybWFsO2ZvbnQtc2l6ZToyMjcuNDIzcHg7Zm9udC1mYW1pbHk6VmVyZGFuYTstaW5rc2NhcGUtZm9udC1zcGVjaWZpY2F0aW9uOlZlcmRhbmE7d3JpdGluZy1tb2RlOmxyLXRiO2ZpbGw6IzAwMDAwMDtmaWxsLW9wYWNpdHk6MTtmaWxsLXJ1bGU6bm9uemVybztzdHJva2U6bm9uZSIgdHJhbnNmb3JtPSJtYXRyaXgoMCwxLDEsMCwzNTIwLDEwMTg1KSIgeG1sOnNwYWNlPSJwcmVzZXJ2ZSI+PHRzcGFuIGlkPSJ0c3BhbjM5NiIgeT0iMCIgeD0iMCAxNDQuNjQxMDIiPjYwPC90c3Bhbj48L3RleHQ+JiN4YTsgICAgICAgIDxwYXRoIGlkPSJwYXRoNDAwIiBzdHlsZT0iZmlsbDpub25lO3N0cm9rZTojMDAwMDAwO3N0cm9rZS13aWR0aDoxMjtzdHJva2UtbGluZWNhcDpyb3VuZDtzdHJva2UtbGluZWpvaW46cm91bmQ7c3Ryb2tlLW1pdGVybGltaXQ6MTA7c3Ryb2tlLWRhc2hhcnJheTpub25lO3N0cm9rZS1vcGFjaXR5OjEiIGQ9Ik0gNjY2MCw3ODMwIDYwNDQsNzIyMyIvPiYjeGE7ICAgICAgICA8dGV4dCBpZD0idGV4dDQwNCIgc3R5bGU9ImZvbnQtdmFyaWFudDpub3JtYWw7Zm9udC13ZWlnaHQ6bm9ybWFsO2ZvbnQtc2l6ZToyMjcuNDIzcHg7Zm9udC1mYW1pbHk6VmVyZGFuYTstaW5rc2NhcGUtZm9udC1zcGVjaWZpY2F0aW9uOlZlcmRhbmE7d3JpdGluZy1tb2RlOmxyLXRiO2ZpbGw6IzAwMDAwMDtmaWxsLW9wYWNpdHk6MTtmaWxsLXJ1bGU6bm9uemVybztzdHJva2U6bm9uZSIgdHJhbnNmb3JtPSJtYXRyaXgoMC43MTI2NCwwLjcwMTUzLDAuNzAxNTMsLTAuNzEyNjQsNjI1Niw3NTMwKSIgeG1sOnNwYWNlPSJwcmVzZXJ2ZSI+PHRzcGFuIGlkPSJ0c3BhbjQwMiIgeT0iMCIgeD0iMCAxNTguMDU4OTkgMzAyLjcwMDA0Ij5SMzA8L3RzcGFuPjwvdGV4dD4mI3hhOyAgICAgICAgPHBhdGggaWQ9InBhdGg0MDYiIHN0eWxlPSJmaWxsOm5vbmU7c3Ryb2tlOiMwMDAwMDA7c3Ryb2tlLXdpZHRoOjEyO3N0cm9rZS1saW5lY2FwOnJvdW5kO3N0cm9rZS1saW5lam9pbjpyb3VuZDtzdHJva2UtbWl0ZXJsaW1pdDoxMDtzdHJva2UtZGFzaGFycmF5Om5vbmU7c3Ryb2tlLW9wYWNpdHk6MSIgZD0ibSA0OTE2LDYxMTIgMTAxMCw5OTUiLz4mI3hhOyAgICAgICAgPGcgaWQ9Imc0MDgiPiYjeGE7ICAgICAgICAgIDxwYXRoIGlkPSJwYXRoNDEwIiBzdHlsZT0iZmlsbDojMDAwMDAwO2ZpbGwtb3BhY2l0eToxO2ZpbGwtcnVsZTpub256ZXJvO3N0cm9rZTojMDAwMDAwO3N0cm9rZS13aWR0aDoxMi41O3N0cm9rZS1saW5lY2FwOnJvdW5kO3N0cm9rZS1saW5lam9pbjptaXRlcjtzdHJva2UtbWl0ZXJsaW1pdDoxMDtzdHJva2UtZGFzaGFycmF5Om5vbmU7c3Ryb2tlLW9wYWNpdHk6MSIgZD0ibSA2MDI0LDcyNDIgMzksLTM5IC0xMzcsLTk2IHoiLz4mI3hhOyAgICAgICAgPC9nPiYjeGE7ICAgICAgICA8cGF0aCBpZD0icGF0aDQxMiIgc3R5bGU9ImZpbGw6bm9uZTtzdHJva2U6IzAwMDAwMDtzdHJva2Utd2lkdGg6MTI7c3Ryb2tlLWxpbmVjYXA6cm91bmQ7c3Ryb2tlLWxpbmVqb2luOnJvdW5kO3N0cm9rZS1taXRlcmxpbWl0OjEwO3N0cm9rZS1kYXNoYXJyYXk6bm9uZTtzdHJva2Utb3BhY2l0eToxIiBkPSJtIDQ1NjIsNjIxMSB2IDQ5NiIvPiYjeGE7ICAgICAgICA8cGF0aCBpZD0icGF0aDQxNCIgc3R5bGU9ImZpbGw6bm9uZTtzdHJva2U6IzAwMDAwMDtzdHJva2Utd2lkdGg6MTI7c3Ryb2tlLWxpbmVjYXA6cm91bmQ7c3Ryb2tlLWxpbmVqb2luOnJvdW5kO3N0cm9rZS1taXRlcmxpbWl0OjEwO3N0cm9rZS1kYXNoYXJyYXk6bm9uZTtzdHJva2Utb3BhY2l0eToxIiBkPSJtIDUyNzEsNjIxMSB2IDQ5NiIvPiYjeGE7ICAgICAgICA8cGF0aCBpZD0icGF0aDQxNiIgc3R5bGU9ImZpbGw6bm9uZTtzdHJva2U6IzAwMDAwMDtzdHJva2Utd2lkdGg6MTI7c3Ryb2tlLWxpbmVjYXA6cm91bmQ7c3Ryb2tlLWxpbmVqb2luOnJvdW5kO3N0cm9rZS1taXRlcmxpbWl0OjEwO3N0cm9rZS1kYXNoYXJyYXk6bm9uZTtzdHJva2Utb3BhY2l0eToxIiBkPSJtIDQ3MjcsNjYwOCBoIDM3OCIvPiYjeGE7ICAgICAgICA8ZyBpZD0iZzQxOCI+JiN4YTsgICAgICAgICAgPHBhdGggaWQ9InBhdGg0MjAiIHN0eWxlPSJmaWxsOiMwMDAwMDA7ZmlsbC1vcGFjaXR5OjE7ZmlsbC1ydWxlOm5vbnplcm87c3Ryb2tlOiMwMDAwMDA7c3Ryb2tlLXdpZHRoOjEyLjU7c3Ryb2tlLWxpbmVjYXA6cm91bmQ7c3Ryb2tlLWxpbmVqb2luOm1pdGVyO3N0cm9rZS1taXRlcmxpbWl0OjEwO3N0cm9rZS1kYXNoYXJyYXk6bm9uZTtzdHJva2Utb3BhY2l0eToxIiBkPSJtIDQ3MjcsNjYzNSB2IC01NSBsIC0xNjUsMjggeiIvPiYjeGE7ICAgICAgICA8L2c+JiN4YTsgICAgICAgIDxnIGlkPSJnNDIyIj4mI3hhOyAgICAgICAgICA8cGF0aCBpZD0icGF0aDQyNCIgc3R5bGU9ImZpbGw6IzAwMDAwMDtmaWxsLW9wYWNpdHk6MTtmaWxsLXJ1bGU6bm9uemVybztzdHJva2U6IzAwMDAwMDtzdHJva2Utd2lkdGg6MTIuNTtzdHJva2UtbGluZWNhcDpyb3VuZDtzdHJva2UtbGluZWpvaW46bWl0ZXI7c3Ryb2tlLW1pdGVybGltaXQ6MTA7c3Ryb2tlLWRhc2hhcnJheTpub25lO3N0cm9rZS1vcGFjaXR5OjEiIGQ9Im0gNTEwNSw2NjM1IHYgLTU1IGwgMTY2LDI4IHoiLz4mI3hhOyAgICAgICAgPC9nPiYjeGE7ICAgICAgICA8dGV4dCBpZD0idGV4dDQyOCIgc3R5bGU9ImZvbnQtdmFyaWFudDpub3JtYWw7Zm9udC13ZWlnaHQ6bm9ybWFsO2ZvbnQtc2l6ZToyMjcuNDIzcHg7Zm9udC1mYW1pbHk6VmVyZGFuYTstaW5rc2NhcGUtZm9udC1zcGVjaWZpY2F0aW9uOlZlcmRhbmE7d3JpdGluZy1tb2RlOmxyLXRiO2ZpbGw6IzAwMDAwMDtmaWxsLW9wYWNpdHk6MTtmaWxsLXJ1bGU6bm9uemVybztzdHJva2U6bm9uZSIgdHJhbnNmb3JtPSJtYXRyaXgoMSwwLDAsLTEsNDg0Miw2Njc3KSIgeG1sOnNwYWNlPSJwcmVzZXJ2ZSI+PHRzcGFuIGlkPSJ0c3BhbjQyNiIgeT0iMCIgeD0iMCI+NTwvdHNwYW4+PC90ZXh0PiYjeGE7ICAgICAgICA8cGF0aCBpZD0icGF0aDQzMCIgc3R5bGU9ImZpbGw6bm9uZTtzdHJva2U6IzAwMDAwMDtzdHJva2Utd2lkdGg6MTI7c3Ryb2tlLWxpbmVjYXA6cm91bmQ7c3Ryb2tlLWxpbmVqb2luOnJvdW5kO3N0cm9rZS1taXRlcmxpbWl0OjEwO3N0cm9rZS1kYXNoYXJyYXk6bm9uZTtzdHJva2Utb3BhY2l0eToxIiBkPSJtIDQ4NzQsNjExMiBoIDg0Ii8+JiN4YTsgICAgICAgIDxwYXRoIGlkPSJwYXRoNDMyIiBzdHlsZT0iZmlsbDpub25lO3N0cm9rZTojMDAwMDAwO3N0cm9rZS13aWR0aDoxMjtzdHJva2UtbGluZWNhcDpyb3VuZDtzdHJva2UtbGluZWpvaW46cm91bmQ7c3Ryb2tlLW1pdGVybGltaXQ6MTA7c3Ryb2tlLWRhc2hhcnJheTpub25lO3N0cm9rZS1vcGFjaXR5OjEiIGQ9Im0gNDkxNiw2MDcwIHYgODQiLz4mI3hhOyAgICAgICAgPHBhdGggaWQ9InBhdGg0MzQiIHN0eWxlPSJmaWxsOm5vbmU7c3Ryb2tlOiMwMDAwMDA7c3Ryb2tlLXdpZHRoOjEyO3N0cm9rZS1saW5lY2FwOnJvdW5kO3N0cm9rZS1saW5lam9pbjpyb3VuZDtzdHJva2UtbWl0ZXJsaW1pdDoxMDtzdHJva2UtZGFzaGFycmF5Om5vbmU7c3Ryb2tlLW9wYWNpdHk6MSIgZD0ibSAzMzM0LDYxMTIgaCA2MDEiLz4mI3hhOyAgICAgICAgPHBhdGggaWQ9InBhdGg0MzYiIHN0eWxlPSJmaWxsOm5vbmU7c3Ryb2tlOiMwMDAwMDA7c3Ryb2tlLXdpZHRoOjEyO3N0cm9rZS1saW5lY2FwOnJvdW5kO3N0cm9rZS1saW5lam9pbjpyb3VuZDtzdHJva2UtbWl0ZXJsaW1pdDoxMDtzdHJva2UtZGFzaGFycmF5Om5vbmU7c3Ryb2tlLW9wYWNpdHk6MSIgZD0ibSA0MDIwLDYxMTIgaCA4NCIvPiYjeGE7ICAgICAgICA8cGF0aCBpZD0icGF0aDQzOCIgc3R5bGU9ImZpbGw6bm9uZTtzdHJva2U6IzAwMDAwMDtzdHJva2Utd2lkdGg6MTI7c3Ryb2tlLWxpbmVjYXA6cm91bmQ7c3Ryb2tlLWxpbmVqb2luOnJvdW5kO3N0cm9rZS1taXRlcmxpbWl0OjEwO3N0cm9rZS1kYXNoYXJyYXk6bm9uZTtzdHJva2Utb3BhY2l0eToxIiBkPSJtIDQxODgsNjExMiBoIDYwMiIvPiYjeGE7ICAgICAgICA8cGF0aCBpZD0icGF0aDQ0MCIgc3R5bGU9ImZpbGw6bm9uZTtzdHJva2U6IzAwMDAwMDtzdHJva2Utd2lkdGg6MTI7c3Ryb2tlLWxpbmVjYXA6cm91bmQ7c3Ryb2tlLWxpbmVqb2luOnJvdW5kO3N0cm9rZS1taXRlcmxpbWl0OjEwO3N0cm9rZS1kYXNoYXJyYXk6bm9uZTtzdHJva2Utb3BhY2l0eToxIiBkPSJtIDUwNDMsNjExMiBoIDYwMSIvPiYjeGE7ICAgICAgICA8cGF0aCBpZD0icGF0aDQ0MiIgc3R5bGU9ImZpbGw6bm9uZTtzdHJva2U6IzAwMDAwMDtzdHJva2Utd2lkdGg6MTI7c3Ryb2tlLWxpbmVjYXA6cm91bmQ7c3Ryb2tlLWxpbmVqb2luOnJvdW5kO3N0cm9rZS1taXRlcmxpbWl0OjEwO3N0cm9rZS1kYXNoYXJyYXk6bm9uZTtzdHJva2Utb3BhY2l0eToxIiBkPSJtIDU3MjksNjExMiBoIDg0Ii8+JiN4YTsgICAgICAgIDxwYXRoIGlkPSJwYXRoNDQ0IiBzdHlsZT0iZmlsbDpub25lO3N0cm9rZTojMDAwMDAwO3N0cm9rZS13aWR0aDoxMjtzdHJva2UtbGluZWNhcDpyb3VuZDtzdHJva2UtbGluZWpvaW46cm91bmQ7c3Ryb2tlLW1pdGVybGltaXQ6MTA7c3Ryb2tlLWRhc2hhcnJheTpub25lO3N0cm9rZS1vcGFjaXR5OjEiIGQ9Im0gNTg5Nyw2MTEyIGggNjAyIi8+JiN4YTsgICAgICAgIDxwYXRoIGlkPSJwYXRoNDQ2IiBzdHlsZT0iZmlsbDpub25lO3N0cm9rZTojMDAwMDAwO3N0cm9rZS13aWR0aDoxMjtzdHJva2UtbGluZWNhcDpyb3VuZDtzdHJva2UtbGluZWpvaW46cm91bmQ7c3Ryb2tlLW1pdGVybGltaXQ6MTA7c3Ryb2tlLWRhc2hhcnJheTpub25lO3N0cm9rZS1vcGFjaXR5OjEiIGQ9Im0gNDkxNiw0NTI5IHYgNjAyIi8+JiN4YTsgICAgICAgIDxwYXRoIGlkPSJwYXRoNDQ4IiBzdHlsZT0iZmlsbDpub25lO3N0cm9rZTojMDAwMDAwO3N0cm9rZS13aWR0aDoxMjtzdHJva2UtbGluZWNhcDpyb3VuZDtzdHJva2UtbGluZWpvaW46cm91bmQ7c3Ryb2tlLW1pdGVybGltaXQ6MTA7c3Ryb2tlLWRhc2hhcnJheTpub25lO3N0cm9rZS1vcGFjaXR5OjEiIGQ9Im0gNDkxNiw1MjE1IHYgODQiLz4mI3hhOyAgICAgICAgPHBhdGggaWQ9InBhdGg0NTAiIHN0eWxlPSJmaWxsOm5vbmU7c3Ryb2tlOiMwMDAwMDA7c3Ryb2tlLXdpZHRoOjEyO3N0cm9rZS1saW5lY2FwOnJvdW5kO3N0cm9rZS1saW5lam9pbjpyb3VuZDtzdHJva2UtbWl0ZXJsaW1pdDoxMDtzdHJva2UtZGFzaGFycmF5Om5vbmU7c3Ryb2tlLW9wYWNpdHk6MSIgZD0ibSA0OTE2LDUzODQgdiA2MDEiLz4mI3hhOyAgICAgICAgPHBhdGggaWQ9InBhdGg0NTIiIHN0eWxlPSJmaWxsOm5vbmU7c3Ryb2tlOiMwMDAwMDA7c3Ryb2tlLXdpZHRoOjEyO3N0cm9rZS1saW5lY2FwOnJvdW5kO3N0cm9rZS1saW5lam9pbjpyb3VuZDtzdHJva2UtbWl0ZXJsaW1pdDoxMDtzdHJva2UtZGFzaGFycmF5Om5vbmU7c3Ryb2tlLW9wYWNpdHk6MSIgZD0ibSA0OTE2LDYyMzggdiA2MDIiLz4mI3hhOyAgICAgICAgPHBhdGggaWQ9InBhdGg0NTQiIHN0eWxlPSJmaWxsOm5vbmU7c3Ryb2tlOiMwMDAwMDA7c3Ryb2tlLXdpZHRoOjEyO3N0cm9rZS1saW5lY2FwOnJvdW5kO3N0cm9rZS1saW5lam9pbjpyb3VuZDtzdHJva2UtbWl0ZXJsaW1pdDoxMDtzdHJva2UtZGFzaGFycmF5Om5vbmU7c3Ryb2tlLW9wYWNpdHk6MSIgZD0ibSA0OTE2LDY5MjQgdiA4NSIvPiYjeGE7ICAgICAgICA8cGF0aCBpZD0icGF0aDQ1NiIgc3R5bGU9ImZpbGw6bm9uZTtzdHJva2U6IzAwMDAwMDtzdHJva2Utd2lkdGg6MTI7c3Ryb2tlLWxpbmVjYXA6cm91bmQ7c3Ryb2tlLWxpbmVqb2luOnJvdW5kO3N0cm9rZS1taXRlcmxpbWl0OjEwO3N0cm9rZS1kYXNoYXJyYXk6bm9uZTtzdHJva2Utb3BhY2l0eToxIiBkPSJtIDQ5MTYsNzA5MyB2IDYwMSIvPiYjeGE7ICAgICAgPC9nPiYjeGE7ICAgIDwvZz4mI3hhOyAgPC9nPiYjeGE7PC9zdmc+;" parent="6ik4fCtfQ_uQef5bXLx3-1" vertex="1">
          <mxGeometry x="39" y="1.5748" width="748.51" height="1060" as="geometry" />
        </mxCell>
        <mxCell id="6ik4fCtfQ_uQef5bXLx3-3" value="" style="rounded=0;whiteSpace=wrap;html=1;fillColor=none;strokeWidth=1;" parent="6ik4fCtfQ_uQef5bXLx3-1" vertex="1">
          <mxGeometry x="39.37" y="39.37" width="748.03" height="1090.63" as="geometry" />
        </mxCell>
        <mxCell id="6ik4fCtfQ_uQef5bXLx3-4" value="" style="endArrow=none;html=1;rounded=0;curved=0;endSize=6;targetPerimeterSpacing=0;jumpSize=6;strokeColor=default;exitX=0.5;exitY=0.018;exitDx=0;exitDy=0;exitPerimeter=0;strokeWidth=1;" parent="6ik4fCtfQ_uQef5bXLx3-1" source="6ik4fCtfQ_uQef5bXLx3-3" edge="1">
          <mxGeometry width="50" height="50" relative="1" as="geometry">
            <mxPoint x="413.37" y="32.68" as="sourcePoint" />
            <mxPoint x="413.37" y="19.68" as="targetPoint" />
          </mxGeometry>
        </mxCell>
        <mxCell id="6ik4fCtfQ_uQef5bXLx3-5" value="" style="endArrow=none;html=1;rounded=0;entryX=0.026;entryY=0.5;entryDx=0;entryDy=0;entryPerimeter=0;strokeWidth=1;" parent="6ik4fCtfQ_uQef5bXLx3-1" target="6ik4fCtfQ_uQef5bXLx3-3" edge="1">
          <mxGeometry width="50" height="50" relative="1" as="geometry">
            <mxPoint x="19.69" y="584.67" as="sourcePoint" />
            <mxPoint x="27.69" y="584.67" as="targetPoint" />
          </mxGeometry>
        </mxCell>
        <mxCell id="6ik4fCtfQ_uQef5bXLx3-6" value="" style="endArrow=none;html=1;rounded=0;exitX=0.974;exitY=0.5;exitDx=0;exitDy=0;exitPerimeter=0;strokeWidth=1;" parent="6ik4fCtfQ_uQef5bXLx3-1" source="6ik4fCtfQ_uQef5bXLx3-3" edge="1">
          <mxGeometry width="50" height="50" relative="1" as="geometry">
            <mxPoint x="797" y="584.68" as="sourcePoint" />
            <mxPoint x="807" y="584.68" as="targetPoint" />
          </mxGeometry>
        </mxCell>
        <mxCell id="6ik4fCtfQ_uQef5bXLx3-7" value="" style="endArrow=none;html=1;rounded=0;entryX=1;entryY=0.75;entryDx=0;entryDy=0;exitX=0;exitY=0.75;exitDx=0;exitDy=0;strokeWidth=1;" parent="6ik4fCtfQ_uQef5bXLx3-1" edge="1">
          <mxGeometry width="50" height="50" relative="1" as="geometry">
            <mxPoint x="39.3" y="944.8825000000002" as="sourcePoint" />
            <mxPoint x="787.49" y="944.8825000000002" as="targetPoint" />
          </mxGeometry>
        </mxCell>
        <mxCell id="6ik4fCtfQ_uQef5bXLx3-8" value="" style="endArrow=none;html=1;rounded=0;entryX=1;entryY=0.75;entryDx=0;entryDy=0;exitX=0;exitY=0.75;exitDx=0;exitDy=0;strokeWidth=1;" parent="6ik4fCtfQ_uQef5bXLx3-1" edge="1">
          <mxGeometry width="50" height="50" relative="1" as="geometry">
            <mxPoint x="39.3" y="984.2510000000001" as="sourcePoint" />
            <mxPoint x="787.49" y="984.2510000000001" as="targetPoint" />
          </mxGeometry>
        </mxCell>
        <mxCell id="6ik4fCtfQ_uQef5bXLx3-9" value="" style="endArrow=none;html=1;rounded=0;strokeWidth=1;" parent="6ik4fCtfQ_uQef5bXLx3-1" edge="1">
          <mxGeometry width="50" height="50" relative="1" as="geometry">
            <mxPoint x="547.24" y="1130" as="sourcePoint" />
            <mxPoint x="547.24" y="944.9" as="targetPoint" />
          </mxGeometry>
        </mxCell>
        <mxCell id="6ik4fCtfQ_uQef5bXLx3-10" value="" style="endArrow=none;html=1;rounded=0;strokeWidth=1;" parent="6ik4fCtfQ_uQef5bXLx3-1" edge="1">
          <mxGeometry width="50" height="50" relative="1" as="geometry">
            <mxPoint x="307.08849999999995" y="1129.9985" as="sourcePoint" />
            <mxPoint x="307.08849999999995" y="944.9" as="targetPoint" />
          </mxGeometry>
        </mxCell>
        <mxCell id="6ik4fCtfQ_uQef5bXLx3-11" value="" style="endArrow=none;html=1;rounded=0;entryX=1;entryY=0.75;entryDx=0;entryDy=0;exitX=0;exitY=0.75;exitDx=0;exitDy=0;strokeWidth=1;" parent="6ik4fCtfQ_uQef5bXLx3-1" edge="1">
          <mxGeometry width="50" height="50" relative="1" as="geometry">
            <mxPoint x="307.1" y="1023.6195" as="sourcePoint" />
            <mxPoint x="787.5" y="1023.6195" as="targetPoint" />
          </mxGeometry>
        </mxCell>
        <mxCell id="6ik4fCtfQ_uQef5bXLx3-12" value="" style="endArrow=none;html=1;rounded=0;entryX=1;entryY=0.75;entryDx=0;entryDy=0;exitX=0;exitY=0.75;exitDx=0;exitDy=0;strokeWidth=1;" parent="6ik4fCtfQ_uQef5bXLx3-1" edge="1">
          <mxGeometry width="50" height="50" relative="1" as="geometry">
            <mxPoint x="547.2" y="1090.548" as="sourcePoint" />
            <mxPoint x="787.5" y="1090.548" as="targetPoint" />
          </mxGeometry>
        </mxCell>
        <mxCell id="6ik4fCtfQ_uQef5bXLx3-13" value="" style="endArrow=none;html=1;rounded=0;strokeWidth=1;" parent="6ik4fCtfQ_uQef5bXLx3-1" edge="1">
          <mxGeometry width="50" height="50" relative="1" as="geometry">
            <mxPoint x="586.6084999999999" y="1129.9985" as="sourcePoint" />
            <mxPoint x="586.6084999999999" y="1090.5" as="targetPoint" />
          </mxGeometry>
        </mxCell>
        <mxCell id="6ik4fCtfQ_uQef5bXLx3-14" value="" style="endArrow=none;html=1;rounded=0;strokeWidth=1;" parent="6ik4fCtfQ_uQef5bXLx3-1" edge="1">
          <mxGeometry width="50" height="50" relative="1" as="geometry">
            <mxPoint x="728.347" y="1129.9969999999998" as="sourcePoint" />
            <mxPoint x="728.347" y="1090.4985" as="targetPoint" />
          </mxGeometry>
        </mxCell>
        <mxCell id="6ik4fCtfQ_uQef5bXLx3-15" value="" style="endArrow=none;html=1;rounded=0;strokeWidth=1;" parent="6ik4fCtfQ_uQef5bXLx3-1" edge="1">
          <mxGeometry width="50" height="50" relative="1" as="geometry">
            <mxPoint x="173.22699999999986" y="984.3" as="sourcePoint" />
            <mxPoint x="173.22699999999986" y="944.8784999999999" as="targetPoint" />
          </mxGeometry>
        </mxCell>
        <mxCell id="6ik4fCtfQ_uQef5bXLx3-16" value="&lt;font style=&quot;font-size: 10px;&quot;&gt;Unit&lt;/font&gt;" style="text;html=1;align=left;verticalAlign=middle;whiteSpace=wrap;rounded=0;fillColor=none;fontStyle=0;fontFamily=Verdana;fontSize=10;" parent="6ik4fCtfQ_uQef5bXLx3-1" vertex="1">
          <mxGeometry x="41.339999999999996" y="944.88" width="25.59" height="12.29" as="geometry" />
        </mxCell>
        <mxCell id="6ik4fCtfQ_uQef5bXLx3-17" value="&lt;font style=&quot;font-size: 10px;&quot;&gt;Scale&lt;/font&gt;" style="text;html=1;align=left;verticalAlign=middle;whiteSpace=wrap;rounded=0;fontStyle=0;fontFamily=Verdana;fontSize=10;" parent="6ik4fCtfQ_uQef5bXLx3-1" vertex="1">
          <mxGeometry x="175.19849999999997" y="944.8784999999999" width="25.59" height="12.29" as="geometry" />
        </mxCell>
        <mxCell id="6ik4fCtfQ_uQef5bXLx3-18" value="&lt;font style=&quot;font-size: 10px;&quot;&gt;&lt;span style=&quot;font-size: 10px;&quot;&gt;General tolerances&lt;/span&gt;&lt;/font&gt;" style="text;html=1;align=left;verticalAlign=middle;whiteSpace=wrap;rounded=0;fontStyle=0;fontFamily=Verdana;fontSize=10;" parent="6ik4fCtfQ_uQef5bXLx3-1" vertex="1">
          <mxGeometry x="309.06" y="944.88" width="124.01" height="12.29" as="geometry" />
        </mxCell>
        <mxCell id="6ik4fCtfQ_uQef5bXLx3-19" value="&lt;font style=&quot;font-size: 10px;&quot;&gt;Material&lt;/font&gt;" style="text;html=1;align=left;verticalAlign=middle;whiteSpace=wrap;rounded=0;fontStyle=0;fontFamily=Verdana;fontSize=10;" parent="6ik4fCtfQ_uQef5bXLx3-1" vertex="1">
          <mxGeometry x="549.22" y="944.88" width="47.24" height="12.29" as="geometry" />
        </mxCell>
        <mxCell id="6ik4fCtfQ_uQef5bXLx3-20" value="&lt;font style=&quot;font-size: 10px;&quot;&gt;Created by&lt;/font&gt;" style="text;html=1;align=left;verticalAlign=middle;whiteSpace=wrap;rounded=0;fontStyle=0;fontFamily=Verdana;fontSize=10;" parent="6ik4fCtfQ_uQef5bXLx3-1" vertex="1">
          <mxGeometry x="549.22" y="984.25" width="74.79" height="12.29" as="geometry" />
        </mxCell>
        <mxCell id="6ik4fCtfQ_uQef5bXLx3-21" value="&lt;font style=&quot;font-size: 10px;&quot;&gt;Project title&lt;/font&gt;" style="text;html=1;align=left;verticalAlign=middle;whiteSpace=wrap;rounded=0;fontStyle=0;fontFamily=Verdana;fontSize=10;" parent="6ik4fCtfQ_uQef5bXLx3-1" vertex="1">
          <mxGeometry x="309.06" y="984.25" width="80.7" height="12.29" as="geometry" />
        </mxCell>
        <mxCell id="6ik4fCtfQ_uQef5bXLx3-22" value="&lt;font style=&quot;font-size: 10px;&quot;&gt;Drawing title&lt;/font&gt;" style="text;html=1;align=left;verticalAlign=middle;whiteSpace=wrap;rounded=0;fontStyle=0;fontFamily=Verdana;fontSize=10;" parent="6ik4fCtfQ_uQef5bXLx3-1" vertex="1">
          <mxGeometry x="309.06" y="1023.62" width="82.67" height="12.29" as="geometry" />
        </mxCell>
        <mxCell id="6ik4fCtfQ_uQef5bXLx3-23" value="&lt;font style=&quot;font-size: 10px;&quot;&gt;Drawing number&lt;/font&gt;" style="text;html=1;align=left;verticalAlign=middle;whiteSpace=wrap;rounded=0;fontStyle=0;fontFamily=Verdana;fontSize=10;" parent="6ik4fCtfQ_uQef5bXLx3-1" vertex="1">
          <mxGeometry x="549.22" y="1023.62" width="98.42" height="12.29" as="geometry" />
        </mxCell>
        <mxCell id="6ik4fCtfQ_uQef5bXLx3-24" value="&lt;font style=&quot;font-size: 10px;&quot;&gt;Notes (Scale 1:1)&lt;/font&gt;" style="text;html=1;align=left;verticalAlign=middle;whiteSpace=wrap;rounded=0;fontStyle=0;fontFamily=Verdana;fontSize=10;" parent="6ik4fCtfQ_uQef5bXLx3-1" vertex="1">
          <mxGeometry x="41.34" y="984.25" width="106.3" height="12.29" as="geometry" />
        </mxCell>
        <mxCell id="6ik4fCtfQ_uQef5bXLx3-25" value="&lt;font style=&quot;font-size: 10px;&quot;&gt;Rev.&lt;/font&gt;" style="text;html=1;align=left;verticalAlign=middle;whiteSpace=wrap;rounded=0;fontStyle=0;fontFamily=Verdana;fontSize=10;" parent="6ik4fCtfQ_uQef5bXLx3-1" vertex="1">
          <mxGeometry x="549.22" y="1090.55" width="41.33" height="12.29" as="geometry" />
        </mxCell>
        <mxCell id="6ik4fCtfQ_uQef5bXLx3-26" value="&lt;font style=&quot;font-size: 10px;&quot;&gt;Date of issue&lt;/font&gt;" style="text;html=1;align=left;verticalAlign=middle;whiteSpace=wrap;rounded=0;fontStyle=0;fontFamily=Verdana;fontSize=10;" parent="6ik4fCtfQ_uQef5bXLx3-1" vertex="1">
          <mxGeometry x="588" y="1090.55" width="83.26" height="12.29" as="geometry" />
        </mxCell>
        <mxCell id="6ik4fCtfQ_uQef5bXLx3-27" value="&lt;font style=&quot;font-size: 10px;&quot;&gt;Sheet&lt;/font&gt;" style="text;html=1;align=left;verticalAlign=middle;whiteSpace=wrap;rounded=0;fontStyle=0;fontFamily=Verdana;fontSize=10;" parent="6ik4fCtfQ_uQef5bXLx3-1" vertex="1">
          <mxGeometry x="729.73" y="1090.55" width="61.61" height="12.29" as="geometry" />
        </mxCell>
        <mxCell id="6ik4fCtfQ_uQef5bXLx3-28" value="&lt;font style=&quot;font-size: 20px; font-weight: normal;&quot;&gt;millimeters&lt;/font&gt;" style="text;html=1;align=left;verticalAlign=middle;whiteSpace=wrap;rounded=0;fillColor=none;fontStyle=1;fontFamily=Verdana;" parent="6ik4fCtfQ_uQef5bXLx3-1" vertex="1">
          <mxGeometry x="41.34" y="964.5699999999999" width="49.21" height="12.29" as="geometry" />
        </mxCell>
        <mxCell id="6ik4fCtfQ_uQef5bXLx3-29" value="&lt;font style=&quot;font-size: 20px; font-weight: normal;&quot;&gt;3:1&lt;/font&gt;" style="text;html=1;align=left;verticalAlign=middle;whiteSpace=wrap;rounded=0;fillColor=none;fontStyle=1;fontFamily=Verdana;" parent="6ik4fCtfQ_uQef5bXLx3-1" vertex="1">
          <mxGeometry x="175.1985" y="964.5684999999999" width="49.21" height="12.29" as="geometry" />
        </mxCell>
        <mxCell id="6ik4fCtfQ_uQef5bXLx3-30" value="&lt;font style=&quot;font-weight: normal; font-size: 20px;&quot;&gt;ISO 2768-m&lt;/font&gt;" style="text;html=1;align=left;verticalAlign=middle;whiteSpace=wrap;rounded=0;fillColor=none;fontStyle=1;fontFamily=Verdana;" parent="6ik4fCtfQ_uQef5bXLx3-1" vertex="1">
          <mxGeometry x="311.03" y="964.57" width="226.37" height="12.29" as="geometry" />
        </mxCell>
        <mxCell id="6ik4fCtfQ_uQef5bXLx3-31" value="&lt;font style=&quot;font-size: 20px; font-weight: normal;&quot;&gt;Train Network&lt;/font&gt;" style="text;html=1;align=left;verticalAlign=middle;whiteSpace=wrap;rounded=0;fillColor=none;fontStyle=1;fontFamily=Verdana;" parent="6ik4fCtfQ_uQef5bXLx3-1" vertex="1">
          <mxGeometry x="311.03" y="1003.94" width="187" height="12.29" as="geometry" />
        </mxCell>
        <mxCell id="6ik4fCtfQ_uQef5bXLx3-32" value="&lt;font style=&quot;font-size: 20px; font-weight: normal;&quot;&gt;Polylactic Acid (PLA)&lt;/font&gt;" style="text;html=1;align=left;verticalAlign=middle;whiteSpace=wrap;rounded=0;fillColor=none;fontStyle=1;fontFamily=Verdana;" parent="6ik4fCtfQ_uQef5bXLx3-1" vertex="1">
          <mxGeometry x="551.18" y="964.57" width="226.38" height="12.29" as="geometry" />
        </mxCell>
        <mxCell id="6ik4fCtfQ_uQef5bXLx3-33" value="&lt;font style=&quot;font-size: 20px; font-weight: normal;&quot;&gt;teoelectric&lt;/font&gt;" style="text;html=1;align=left;verticalAlign=middle;whiteSpace=wrap;rounded=0;fillColor=none;fontStyle=1;fontFamily=Verdana;" parent="6ik4fCtfQ_uQef5bXLx3-1" vertex="1">
          <mxGeometry x="551.17" y="1003.94" width="145.67" height="12.29" as="geometry" />
        </mxCell>
        <mxCell id="6ik4fCtfQ_uQef5bXLx3-34" value="&lt;span style=&quot;font-size: 20px; font-weight: 400;&quot;&gt;45&lt;/span&gt;" style="text;html=1;align=center;verticalAlign=middle;whiteSpace=wrap;rounded=0;fillColor=none;fontStyle=1;fontFamily=Verdana;" parent="6ik4fCtfQ_uQef5bXLx3-1" vertex="1">
          <mxGeometry x="557.0899999999999" y="1053.15" width="220.47" height="12.29" as="geometry" />
        </mxCell>
        <mxCell id="6ik4fCtfQ_uQef5bXLx3-35" value="&lt;font style=&quot;font-size: 20px; font-weight: normal;&quot;&gt;Wheels Dimensions&lt;/font&gt;" style="text;html=1;align=left;verticalAlign=middle;whiteSpace=wrap;rounded=0;fillColor=none;fontStyle=1;fontFamily=Verdana;" parent="6ik4fCtfQ_uQef5bXLx3-1" vertex="1">
          <mxGeometry x="311.03" y="1068.9" width="244.09" height="12.29" as="geometry" />
        </mxCell>
        <mxCell id="6ik4fCtfQ_uQef5bXLx3-36" value="&lt;font style=&quot;font-size: 20px; font-weight: normal;&quot;&gt;1/1&lt;/font&gt;" style="text;html=1;align=left;verticalAlign=middle;whiteSpace=wrap;rounded=0;fillColor=none;fontStyle=1;fontFamily=Verdana;" parent="6ik4fCtfQ_uQef5bXLx3-1" vertex="1">
          <mxGeometry x="735.934" y="1106.2939999999994" width="49.21" height="12.29" as="geometry" />
        </mxCell>
        <mxCell id="6ik4fCtfQ_uQef5bXLx3-37" value="&lt;font style=&quot;font-size: 20px; font-weight: normal;&quot;&gt;17/08/2025&lt;/font&gt;" style="text;html=1;align=center;verticalAlign=middle;whiteSpace=wrap;rounded=0;fillColor=none;fontStyle=1;fontFamily=Verdana;" parent="6ik4fCtfQ_uQef5bXLx3-1" vertex="1">
          <mxGeometry x="647.64" y="1106.2900000000002" width="19.69" height="12.29" as="geometry" />
        </mxCell>
        <mxCell id="6ik4fCtfQ_uQef5bXLx3-38" value="&lt;font style=&quot;font-size: 20px; font-weight: normal;&quot;&gt;A&lt;/font&gt;" style="text;html=1;align=center;verticalAlign=middle;whiteSpace=wrap;rounded=0;fillColor=none;fontStyle=1;fontFamily=Verdana;" parent="6ik4fCtfQ_uQef5bXLx3-1" vertex="1">
          <mxGeometry x="557.0884999999998" y="1106.2985" width="19.69" height="12.29" as="geometry" />
        </mxCell>
        <mxCell id="6ik4fCtfQ_uQef5bXLx3-39" value="&lt;span style=&quot;font-size: 20px; font-weight: 400;&quot;&gt;Wheel chamfer &lt;/span&gt;&lt;span style=&quot;font-size: 20px;&quot;&gt;(&lt;/span&gt;&lt;span style=&quot;font-size: 20px;&quot;&gt;C)&lt;span style=&quot;font-weight: 400;&quot;&gt;&amp;nbsp;two&lt;/span&gt;&lt;/span&gt;" style="text;html=1;align=left;verticalAlign=middle;whiteSpace=wrap;rounded=0;fillColor=none;fontStyle=1;fontFamily=Verdana;" parent="6ik4fCtfQ_uQef5bXLx3-1" vertex="1">
          <mxGeometry x="41.33" y="1003.94" width="259.85" height="12.29" as="geometry" />
        </mxCell>
        <mxCell id="6ik4fCtfQ_uQef5bXLx3-40" value="&lt;span style=&quot;font-size: 20px; font-weight: 400;&quot;&gt;distance: 0.5 and 4&lt;/span&gt;" style="text;html=1;align=left;verticalAlign=middle;whiteSpace=wrap;rounded=0;fillColor=none;fontStyle=1;fontFamily=Verdana;" parent="6ik4fCtfQ_uQef5bXLx3-1" vertex="1">
          <mxGeometry x="41.33" y="1027.56" width="259.85" height="12.29" as="geometry" />
        </mxCell>
        <mxCell id="bTe1DrjwdPlw612lmabr-8" value="&lt;font style=&quot;font-size: 8px;&quot;&gt;(C)&lt;/font&gt;" style="text;html=1;align=center;verticalAlign=middle;whiteSpace=wrap;rounded=0;fontFamily=Verdana;fontSize=8;fontColor=#000000;fontStyle=1" parent="6ik4fCtfQ_uQef5bXLx3-1" vertex="1">
          <mxGeometry x="234.25249999999994" y="183.07250000000016" width="33.46" height="18.19" as="geometry" />
        </mxCell>
        <mxCell id="_C-20YDOr6rBikIu66mO-1" value="&lt;font style=&quot;font-size: 8px;&quot;&gt;(C)&lt;/font&gt;" style="text;html=1;align=center;verticalAlign=middle;whiteSpace=wrap;rounded=0;fontFamily=Verdana;fontSize=8;fontColor=#000000;fontStyle=1" parent="6ik4fCtfQ_uQef5bXLx3-1" vertex="1">
          <mxGeometry x="556.1109999999999" y="183.07100000000017" width="33.46" height="18.19" as="geometry" />
        </mxCell>
        <mxCell id="_C-20YDOr6rBikIu66mO-2" value="&lt;font style=&quot;font-size: 8px;&quot;&gt;(C)&lt;/font&gt;" style="text;html=1;align=center;verticalAlign=middle;whiteSpace=wrap;rounded=0;fontFamily=Verdana;fontSize=8;fontColor=#000000;fontStyle=1" parent="6ik4fCtfQ_uQef5bXLx3-1" vertex="1">
          <mxGeometry x="556.1094999999999" y="362.1995000000001" width="33.46" height="18.19" as="geometry" />
        </mxCell>
        <mxCell id="_C-20YDOr6rBikIu66mO-3" value="&lt;font style=&quot;font-size: 8px;&quot;&gt;(C)&lt;/font&gt;" style="text;html=1;align=center;verticalAlign=middle;whiteSpace=wrap;rounded=0;fontFamily=Verdana;fontSize=8;fontColor=#000000;fontStyle=1" parent="6ik4fCtfQ_uQef5bXLx3-1" vertex="1">
          <mxGeometry x="234.24799999999982" y="362.19800000000015" width="33.46" height="18.19" as="geometry" />
        </mxCell>
      </root>
    </mxGraphModel>
  </diagram>
</mxfile>
